  0
SECTION
  2
HEADER
  9
$LIMMIN
 10
0.000000
 20
0.000000
  9
$LIMMAX
 10
38.500000
 20
36.000000
  9
$EXTMIN
 10
0.000000
 20
0.000000
  9
$EXTMAX
 10
38.500000
 20
36.000000
  9
$ANGBASE
 50
0.000000
  9
$ANGDIR
 70
0
  9
$INSUNITS
 70
4
  9
$DIMALT
 70
4
  9
$DIMLUNIT
 70
2
  9
$DIMASZ
 40
3.000000
  9
$DIMTXT
 40
5.000000
  9
$DIMRND
 40
0.010000
  9
$DIMEXE
 40
2.000000
  9
$DIMEXO
 40
2.000000
  9
$DIMAUNIT
 70
0
  9
$DIMADEC
 70
2
  9
$GRIDUNIT
 10
0.010000
 20
0.010000
  9
$PLIMMIN
 10
0.000000
 20
0.000000
  9
$PLIMMAX
 10
279.400000
 20
215.900000
  9
$PSVPSCALE
 40
5.000000
  0
ENDSEC
  0
SECTION
  2
TABLES
  0
TABLE
  2
LTYPE
 70
     1
  0
LTYPE
  2
CONTINUOUS
 70
    64
  3
Ausgez
 72
    65
 73
  0
 40
0.000000
  0
ENDTAB
  0
TABLE
  2
LAYER
 70
     1
  0
LAYER
  2
Plug
 70
    64
 62
1
  6
CONTINUOUS
  0
LAYER
  2
PlugPins
 70
    64
 62
121
  6
CONTINUOUS
  0
LAYER
  2
Receptacle
 70
    64
 62
7
  6
CONTINUOUS
  0
LAYER
  2
PlugPCB
 70
    64
 62
163
  6
CONTINUOUS
  0
LAYER
  2
RecepPins
 70
    64
 62
131
  6
CONTINUOUS
  0
LAYER
  2
RecepPCB
 70
    64
 62
221
  6
CONTINUOUS
  0
LAYER
  2
Brackets
 70
    64
 62
8
  6
CONTINUOUS
  0
LAYER
  2
Screws
 70
    64
 62
23
  6
CONTINUOUS
  0
LAYER
  2
DImension
 70
    64
 62
7
  6
CONTINUOUS
  0
ENDTAB
  0
ENDSEC
  0
SECTION
  2
BLOCKS
  0
ENDSEC
  0
SECTION
  2
ENTITIES
  0
LINE
  8
Plug
  6
CONTINUOUS
 10
30.000000
 20
34.600000
 11
30.000000
 21
30.000000
 39
3
 62
1
  0
LINE
  8
Plug
  6
CONTINUOUS
 10
30.000000
 20
30.000000
 11
35.400000
 21
30.000000
 39
3
 62
1
  0
LINE
  8
Plug
  6
CONTINUOUS
 10
35.400000
 20
33.950000
 11
35.400000
 21
30.000000
 39
3
 62
1
  0
LINE
  8
Plug
  6
CONTINUOUS
 10
30.000000
 20
34.600000
 11
33.750000
 21
34.600000
 39
3
 62
1
  0
LINE
  8
Plug
  6
CONTINUOUS
 10
33.750000
 20
34.600000
 11
33.750000
 21
33.950000
 39
3
 62
1
  0
LINE
  8
Plug
  6
CONTINUOUS
 10
30.000000
 20
33.950000
 11
35.400000
 21
33.950000
 39
3
 62
1
  0
LINE
  8
Plug
  6
CONTINUOUS
 10
14.050000
 20
33.950000
 11
14.700000
 21
34.600000
 39
3
 62
1
  0
LINE
  8
Plug
  6
CONTINUOUS
 10
14.700000
 20
34.600000
 11
19.350000
 21
34.600000
 39
3
 62
1
  0
LINE
  8
Plug
  6
CONTINUOUS
 10
20.000000
 20
33.950000
 11
19.350000
 21
34.600000
 39
3
 62
1
  0
LINE
  8
Plug
  6
CONTINUOUS
 10
20.000000
 20
33.950000
 11
20.000000
 21
30.000000
 39
3
 62
1
  0
LINE
  8
Plug
  6
CONTINUOUS
 10
14.050000
 20
30.000000
 11
20.000000
 21
30.000000
 39
3
 62
1
  0
LINE
  8
Plug
  6
CONTINUOUS
 10
14.050000
 20
33.950000
 11
14.050000
 21
30.000000
 39
3
 62
1
  0
LINE
  8
Plug
  6
CONTINUOUS
 10
14.750000
 20
15.600000
 11
19.300000
 21
15.600000
 39
3
 62
1
  0
LINE
  8
Plug
  6
CONTINUOUS
 10
14.050000
 20
20.000000
 11
20.000000
 21
20.000000
 39
3
 62
1
  0
LINE
  8
Plug
  6
CONTINUOUS
 10
14.050000
 20
20.000000
 11
14.050000
 21
14.600000
 39
3
 62
1
  0
LINE
  8
Plug
  6
CONTINUOUS
 10
20.000000
 20
20.000000
 11
20.000000
 21
14.600000
 39
3
 62
1
  0
LINE
  8
Plug
  6
CONTINUOUS
 10
14.750000
 20
15.600000
 11
14.750000
 21
14.600000
 39
3
 62
1
  0
LINE
  8
Plug
  6
CONTINUOUS
 10
14.050000
 20
14.600000
 11
14.750000
 21
14.600000
 39
3
 62
1
  0
LINE
  8
Plug
  6
CONTINUOUS
 10
19.300000
 20
15.600000
 11
19.300000
 21
14.600000
 39
3
 62
1
  0
LINE
  8
Plug
  6
CONTINUOUS
 10
19.300000
 20
14.600000
 11
20.000000
 21
14.600000
 39
3
 62
1
  0
LINE
  8
PlugPins
  6
CONTINUOUS
 10
16.250000
 20
33.450000
 11
16.250000
 21
33.150000
 39
3
 62
121
  0
LINE
  8
PlugPins
  6
CONTINUOUS
 10
16.250000
 20
33.150000
 11
16.550000
 21
33.150000
 39
3
 62
121
  0
LINE
  8
PlugPins
  6
CONTINUOUS
 10
16.550000
 20
33.450000
 11
16.550000
 21
33.150000
 39
3
 62
121
  0
LINE
  8
PlugPins
  6
CONTINUOUS
 10
16.250000
 20
33.450000
 11
16.550000
 21
33.450000
 39
3
 62
121
  0
LINE
  8
PlugPins
  6
CONTINUOUS
 10
16.250000
 20
31.450000
 11
16.250000
 21
31.150000
 39
3
 62
121
  0
LINE
  8
PlugPins
  6
CONTINUOUS
 10
16.250000
 20
31.150000
 11
16.550000
 21
31.150000
 39
3
 62
121
  0
LINE
  8
PlugPins
  6
CONTINUOUS
 10
16.550000
 20
31.450000
 11
16.550000
 21
31.150000
 39
3
 62
121
  0
LINE
  8
PlugPins
  6
CONTINUOUS
 10
16.250000
 20
31.450000
 11
16.550000
 21
31.450000
 39
3
 62
121
  0
LINE
  8
PlugPins
  6
CONTINUOUS
 10
15.000000
 20
33.450000
 11
15.000000
 21
33.150000
 39
3
 62
121
  0
LINE
  8
PlugPins
  6
CONTINUOUS
 10
15.000000
 20
33.150000
 11
15.300000
 21
33.150000
 39
3
 62
121
  0
LINE
  8
PlugPins
  6
CONTINUOUS
 10
15.300000
 20
33.450000
 11
15.300000
 21
33.150000
 39
3
 62
121
  0
LINE
  8
PlugPins
  6
CONTINUOUS
 10
15.000000
 20
33.450000
 11
15.300000
 21
33.450000
 39
3
 62
121
  0
LINE
  8
PlugPins
  6
CONTINUOUS
 10
15.000000
 20
31.450000
 11
15.000000
 21
31.150000
 39
3
 62
121
  0
LINE
  8
PlugPins
  6
CONTINUOUS
 10
15.000000
 20
31.150000
 11
15.300000
 21
31.150000
 39
3
 62
121
  0
LINE
  8
PlugPins
  6
CONTINUOUS
 10
15.300000
 20
31.450000
 11
15.300000
 21
31.150000
 39
3
 62
121
  0
LINE
  8
PlugPins
  6
CONTINUOUS
 10
15.000000
 20
31.450000
 11
15.300000
 21
31.450000
 39
3
 62
121
  0
LINE
  8
PlugPins
  6
CONTINUOUS
 10
17.500000
 20
33.450000
 11
17.500000
 21
33.150000
 39
3
 62
121
  0
LINE
  8
PlugPins
  6
CONTINUOUS
 10
17.500000
 20
33.150000
 11
17.800000
 21
33.150000
 39
3
 62
121
  0
LINE
  8
PlugPins
  6
CONTINUOUS
 10
17.800000
 20
33.450000
 11
17.800000
 21
33.150000
 39
3
 62
121
  0
LINE
  8
PlugPins
  6
CONTINUOUS
 10
17.500000
 20
33.450000
 11
17.800000
 21
33.450000
 39
3
 62
121
  0
LINE
  8
PlugPins
  6
CONTINUOUS
 10
17.500000
 20
31.450000
 11
17.500000
 21
31.150000
 39
3
 62
121
  0
LINE
  8
PlugPins
  6
CONTINUOUS
 10
17.500000
 20
31.150000
 11
17.800000
 21
31.150000
 39
3
 62
121
  0
LINE
  8
PlugPins
  6
CONTINUOUS
 10
17.800000
 20
31.450000
 11
17.800000
 21
31.150000
 39
3
 62
121
  0
LINE
  8
PlugPins
  6
CONTINUOUS
 10
17.500000
 20
31.450000
 11
17.800000
 21
31.450000
 39
3
 62
121
  0
LINE
  8
PlugPins
  6
CONTINUOUS
 10
18.750000
 20
33.450000
 11
18.750000
 21
33.150000
 39
3
 62
121
  0
LINE
  8
PlugPins
  6
CONTINUOUS
 10
18.750000
 20
33.150000
 11
19.050000
 21
33.150000
 39
3
 62
121
  0
LINE
  8
PlugPins
  6
CONTINUOUS
 10
19.050000
 20
33.450000
 11
19.050000
 21
33.150000
 39
3
 62
121
  0
LINE
  8
PlugPins
  6
CONTINUOUS
 10
18.750000
 20
33.450000
 11
19.050000
 21
33.450000
 39
3
 62
121
  0
LINE
  8
PlugPins
  6
CONTINUOUS
 10
18.750000
 20
31.450000
 11
18.750000
 21
31.150000
 39
3
 62
121
  0
LINE
  8
PlugPins
  6
CONTINUOUS
 10
18.750000
 20
31.150000
 11
19.050000
 21
31.150000
 39
3
 62
121
  0
LINE
  8
PlugPins
  6
CONTINUOUS
 10
19.050000
 20
31.450000
 11
19.050000
 21
31.150000
 39
3
 62
121
  0
LINE
  8
PlugPins
  6
CONTINUOUS
 10
18.750000
 20
31.450000
 11
19.050000
 21
31.450000
 39
3
 62
121
  0
LINE
  8
PlugPins
  6
CONTINUOUS
 10
34.000000
 20
28.000000
 11
34.300000
 21
28.000000
 39
3
 62
121
  0
LINE
  8
PlugPins
  6
CONTINUOUS
 10
36.000000
 20
28.000000
 11
36.300000
 21
28.000000
 39
3
 62
121
  0
LINE
  8
PlugPins
  6
CONTINUOUS
 10
36.000000
 20
29.951222
 11
36.000000
 21
28.000000
 39
3
 62
121
  0
LINE
  8
PlugPins
  6
CONTINUOUS
 10
36.300000
 20
30.048778
 11
36.300000
 21
28.000000
 39
3
 62
121
  0
LINE
  8
PlugPins
  6
CONTINUOUS
 10
34.000000
 20
30.000000
 11
34.000000
 21
28.000000
 39
3
 62
121
  0
LINE
  8
PlugPins
  6
CONTINUOUS
 10
34.300000
 20
30.000000
 11
34.300000
 21
28.000000
 39
3
 62
121
  0
LINE
  8
PlugPins
  6
CONTINUOUS
 10
35.400000
 20
30.776222
 11
36.000000
 21
29.951222
 39
3
 62
121
  0
LINE
  8
PlugPins
  6
CONTINUOUS
 10
35.400000
 20
31.286278
 11
36.300000
 21
30.048778
 39
3
 62
121
  0
LINE
  8
PlugPins
  6
CONTINUOUS
 10
15.000000
 20
16.000000
 11
15.000000
 21
15.700000
 39
3
 62
121
  0
LINE
  8
PlugPins
  6
CONTINUOUS
 10
15.000000
 20
16.000000
 11
15.300000
 21
16.000000
 39
3
 62
121
  0
LINE
  8
PlugPins
  6
CONTINUOUS
 10
15.300000
 20
16.000000
 11
15.300000
 21
15.700000
 39
3
 62
121
  0
LINE
  8
PlugPins
  6
CONTINUOUS
 10
15.000000
 20
15.700000
 11
15.300000
 21
15.700000
 39
3
 62
121
  0
LINE
  8
PlugPins
  6
CONTINUOUS
 10
15.000000
 20
14.000000
 11
15.000000
 21
13.700000
 39
3
 62
121
  0
LINE
  8
PlugPins
  6
CONTINUOUS
 10
15.000000
 20
13.700000
 11
15.300000
 21
13.700000
 39
3
 62
121
  0
LINE
  8
PlugPins
  6
CONTINUOUS
 10
15.300000
 20
14.000000
 11
15.300000
 21
13.700000
 39
3
 62
121
  0
LINE
  8
PlugPins
  6
CONTINUOUS
 10
15.000000
 20
14.000000
 11
15.300000
 21
14.000000
 39
3
 62
121
  0
LINE
  8
PlugPins
  6
CONTINUOUS
 10
16.250000
 20
16.000000
 11
16.250000
 21
15.700000
 39
3
 62
121
  0
LINE
  8
PlugPins
  6
CONTINUOUS
 10
16.250000
 20
16.000000
 11
16.550000
 21
16.000000
 39
3
 62
121
  0
LINE
  8
PlugPins
  6
CONTINUOUS
 10
16.550000
 20
16.000000
 11
16.550000
 21
15.700000
 39
3
 62
121
  0
LINE
  8
PlugPins
  6
CONTINUOUS
 10
16.250000
 20
15.700000
 11
16.550000
 21
15.700000
 39
3
 62
121
  0
LINE
  8
PlugPins
  6
CONTINUOUS
 10
16.250000
 20
14.000000
 11
16.250000
 21
13.700000
 39
3
 62
121
  0
LINE
  8
PlugPins
  6
CONTINUOUS
 10
16.250000
 20
13.700000
 11
16.550000
 21
13.700000
 39
3
 62
121
  0
LINE
  8
PlugPins
  6
CONTINUOUS
 10
16.550000
 20
14.000000
 11
16.550000
 21
13.700000
 39
3
 62
121
  0
LINE
  8
PlugPins
  6
CONTINUOUS
 10
16.250000
 20
14.000000
 11
16.550000
 21
14.000000
 39
3
 62
121
  0
LINE
  8
PlugPins
  6
CONTINUOUS
 10
17.500000
 20
16.000000
 11
17.500000
 21
15.700000
 39
3
 62
121
  0
LINE
  8
PlugPins
  6
CONTINUOUS
 10
17.500000
 20
16.000000
 11
17.800000
 21
16.000000
 39
3
 62
121
  0
LINE
  8
PlugPins
  6
CONTINUOUS
 10
17.800000
 20
16.000000
 11
17.800000
 21
15.700000
 39
3
 62
121
  0
LINE
  8
PlugPins
  6
CONTINUOUS
 10
17.500000
 20
15.700000
 11
17.800000
 21
15.700000
 39
3
 62
121
  0
LINE
  8
PlugPins
  6
CONTINUOUS
 10
17.500000
 20
14.000000
 11
17.500000
 21
13.700000
 39
3
 62
121
  0
LINE
  8
PlugPins
  6
CONTINUOUS
 10
17.500000
 20
13.700000
 11
17.800000
 21
13.700000
 39
3
 62
121
  0
LINE
  8
PlugPins
  6
CONTINUOUS
 10
17.800000
 20
14.000000
 11
17.800000
 21
13.700000
 39
3
 62
121
  0
LINE
  8
PlugPins
  6
CONTINUOUS
 10
17.500000
 20
14.000000
 11
17.800000
 21
14.000000
 39
3
 62
121
  0
LINE
  8
PlugPins
  6
CONTINUOUS
 10
18.750000
 20
16.000000
 11
18.750000
 21
15.700000
 39
3
 62
121
  0
LINE
  8
PlugPins
  6
CONTINUOUS
 10
18.750000
 20
16.000000
 11
19.050000
 21
16.000000
 39
3
 62
121
  0
LINE
  8
PlugPins
  6
CONTINUOUS
 10
19.050000
 20
16.000000
 11
19.050000
 21
15.700000
 39
3
 62
121
  0
LINE
  8
PlugPins
  6
CONTINUOUS
 10
18.750000
 20
15.700000
 11
19.050000
 21
15.700000
 39
3
 62
121
  0
LINE
  8
PlugPins
  6
CONTINUOUS
 10
18.750000
 20
14.000000
 11
18.750000
 21
13.700000
 39
3
 62
121
  0
LINE
  8
PlugPins
  6
CONTINUOUS
 10
18.750000
 20
13.700000
 11
19.050000
 21
13.700000
 39
3
 62
121
  0
LINE
  8
PlugPins
  6
CONTINUOUS
 10
19.050000
 20
14.000000
 11
19.050000
 21
13.700000
 39
3
 62
121
  0
LINE
  8
PlugPins
  6
CONTINUOUS
 10
18.750000
 20
14.000000
 11
19.050000
 21
14.000000
 39
3
 62
121
  0
LINE
  8
PlugPins
  6
CONTINUOUS
 10
18.750000
 20
15.600000
 11
18.750000
 21
14.000000
 39
3
 62
121
  0
LINE
  8
PlugPins
  6
CONTINUOUS
 10
19.050000
 20
15.600000
 11
19.050000
 21
14.000000
 39
3
 62
121
  0
LINE
  8
PlugPins
  6
CONTINUOUS
 10
17.800000
 20
15.600000
 11
17.800000
 21
14.000000
 39
3
 62
121
  0
LINE
  8
PlugPins
  6
CONTINUOUS
 10
17.500000
 20
15.600000
 11
17.500000
 21
14.000000
 39
3
 62
121
  0
LINE
  8
PlugPins
  6
CONTINUOUS
 10
16.550000
 20
15.600000
 11
16.550000
 21
14.000000
 39
3
 62
121
  0
LINE
  8
PlugPins
  6
CONTINUOUS
 10
16.250000
 20
15.600000
 11
16.250000
 21
14.000000
 39
3
 62
121
  0
LINE
  8
PlugPins
  6
CONTINUOUS
 10
15.300000
 20
15.600000
 11
15.300000
 21
14.000000
 39
3
 62
121
  0
LINE
  8
PlugPins
  6
CONTINUOUS
 10
15.000000
 20
15.600000
 11
15.000000
 21
14.000000
 39
3
 62
121
  0
LINE
  8
Receptacle
  6
CONTINUOUS
 10
14.450000
 20
33.784315
 11
14.915685
 21
34.250000
 39
3
 62
7
  0
LINE
  8
Receptacle
  6
CONTINUOUS
 10
14.450000
 20
33.784315
 11
14.450000
 21
30.350000
 39
3
 62
7
  0
LINE
  8
Receptacle
  6
CONTINUOUS
 10
14.450000
 20
30.350000
 11
19.600000
 21
30.350000
 39
3
 62
7
  0
LINE
  8
Receptacle
  6
CONTINUOUS
 10
19.600000
 20
33.784315
 11
19.600000
 21
30.350000
 39
3
 62
7
  0
LINE
  8
Receptacle
  6
CONTINUOUS
 10
19.600000
 20
33.784315
 11
19.134315
 21
34.250000
 39
3
 62
7
  0
LINE
  8
Receptacle
  6
CONTINUOUS
 10
14.915685
 20
34.250000
 11
19.134315
 21
34.250000
 39
3
 62
7
  0
LINE
  8
Receptacle
  6
CONTINUOUS
 10
14.700000
 20
34.600000
 11
19.350000
 21
34.600000
 39
3
 62
7
  0
LINE
  8
Receptacle
  6
CONTINUOUS
 10
14.050000
 20
33.950000
 11
14.700000
 21
34.600000
 39
3
 62
7
  0
LINE
  8
Receptacle
  6
CONTINUOUS
 10
20.000000
 20
33.950000
 11
19.350000
 21
34.600000
 39
3
 62
7
  0
LINE
  8
Receptacle
  6
CONTINUOUS
 10
20.000000
 20
33.950000
 11
20.000000
 21
30.000000
 39
3
 62
7
  0
LINE
  8
Receptacle
  6
CONTINUOUS
 10
14.050000
 20
30.000000
 11
20.000000
 21
30.000000
 39
3
 62
7
  0
LINE
  8
Receptacle
  6
CONTINUOUS
 10
14.050000
 20
33.950000
 11
14.050000
 21
30.000000
 39
3
 62
7
  0
LINE
  8
Receptacle
  6
CONTINUOUS
 10
28.200000
 20
34.600000
 11
30.000000
 21
34.600000
 39
3
 62
7
  0
LINE
  8
Receptacle
  6
CONTINUOUS
 10
28.200000
 20
34.600000
 11
28.200000
 21
30.000000
 39
3
 62
7
  0
LINE
  8
Receptacle
  6
CONTINUOUS
 10
28.200000
 20
30.000000
 11
30.000000
 21
30.000000
 39
3
 62
7
  0
LINE
  8
Receptacle
  6
CONTINUOUS
 10
30.000000
 20
34.600000
 11
30.000000
 21
30.000000
 39
3
 62
7
  0
LINE
  8
Receptacle
  6
CONTINUOUS
 10
28.200000
 20
33.950000
 11
30.000000
 21
33.950000
 39
3
 62
7
  0
LINE
  8
Receptacle
  6
CONTINUOUS
 10
30.000000
 20
30.350000
 11
32.700000
 21
30.350000
 39
3
 62
7
  0
LINE
  8
Receptacle
  6
CONTINUOUS
 10
32.700000
 20
34.250000
 11
32.700000
 21
30.350000
 39
3
 62
7
  0
LINE
  8
Receptacle
  6
CONTINUOUS
 10
30.000000
 20
34.250000
 11
32.700000
 21
34.250000
 39
3
 62
7
  0
LINE
  8
Receptacle
  6
CONTINUOUS
 10
30.000000
 20
33.784315
 11
32.700000
 21
33.784315
 39
3
 62
7
  0
LINE
  8
Receptacle
  6
CONTINUOUS
 10
14.050000
 20
21.800000
 11
20.000000
 21
21.800000
 39
3
 62
7
  0
LINE
  8
Receptacle
  6
CONTINUOUS
 10
20.000000
 20
21.800000
 11
20.000000
 21
20.000000
 39
3
 62
7
  0
LINE
  8
Receptacle
  6
CONTINUOUS
 10
14.050000
 20
20.000000
 11
20.000000
 21
20.000000
 39
3
 62
7
  0
LINE
  8
Receptacle
  6
CONTINUOUS
 10
14.050000
 20
21.800000
 11
14.050000
 21
20.000000
 39
3
 62
7
  0
LINE
  8
Receptacle
  6
CONTINUOUS
 10
14.450000
 20
17.300000
 11
19.600000
 21
17.300000
 39
3
 62
7
  0
LINE
  8
Receptacle
  6
CONTINUOUS
 10
19.600000
 20
20.000000
 11
19.600000
 21
17.300000
 39
3
 62
7
  0
LINE
  8
Receptacle
  6
CONTINUOUS
 10
14.450000
 20
20.000000
 11
14.450000
 21
17.300000
 39
3
 62
7
  0
LINE
  8
RecepPins
  6
CONTINUOUS
 10
26.200000
 20
33.450000
 11
26.200000
 21
33.150000
 39
3
 62
131
  0
LINE
  8
RecepPins
  6
CONTINUOUS
 10
26.200000
 20
31.450000
 11
26.200000
 21
31.150000
 39
3
 62
131
  0
LINE
  8
RecepPins
  6
CONTINUOUS
 10
26.200000
 20
33.150000
 11
28.200000
 21
33.150000
 39
3
 62
131
  0
LINE
  8
RecepPins
  6
CONTINUOUS
 10
26.200000
 20
33.450000
 11
28.200000
 21
33.450000
 39
3
 62
131
  0
LINE
  8
RecepPins
  6
CONTINUOUS
 10
26.200000
 20
31.450000
 11
28.200000
 21
31.450000
 39
3
 62
131
  0
LINE
  8
RecepPins
  6
CONTINUOUS
 10
26.200000
 20
31.150000
 11
28.200000
 21
31.150000
 39
3
 62
131
  0
LINE
  8
RecepPins
  6
CONTINUOUS
 10
15.000000
 20
23.800000
 11
15.300000
 21
23.800000
 39
3
 62
131
  0
LINE
  8
RecepPins
  6
CONTINUOUS
 10
15.000000
 20
23.800000
 11
15.000000
 21
21.800000
 39
3
 62
131
  0
LINE
  8
RecepPins
  6
CONTINUOUS
 10
15.300000
 20
23.800000
 11
15.300000
 21
21.800000
 39
3
 62
131
  0
LINE
  8
RecepPins
  6
CONTINUOUS
 10
16.250000
 20
23.800000
 11
16.550000
 21
23.800000
 39
3
 62
131
  0
LINE
  8
RecepPins
  6
CONTINUOUS
 10
16.250000
 20
23.800000
 11
16.250000
 21
21.800000
 39
3
 62
131
  0
LINE
  8
RecepPins
  6
CONTINUOUS
 10
16.550000
 20
23.800000
 11
16.550000
 21
21.800000
 39
3
 62
131
  0
LINE
  8
RecepPins
  6
CONTINUOUS
 10
17.500000
 20
23.800000
 11
17.800000
 21
23.800000
 39
3
 62
131
  0
LINE
  8
RecepPins
  6
CONTINUOUS
 10
17.500000
 20
23.800000
 11
17.500000
 21
21.800000
 39
3
 62
131
  0
LINE
  8
RecepPins
  6
CONTINUOUS
 10
17.800000
 20
23.800000
 11
17.800000
 21
21.800000
 39
3
 62
131
  0
LINE
  8
RecepPins
  6
CONTINUOUS
 10
18.750000
 20
23.800000
 11
19.050000
 21
23.800000
 39
3
 62
131
  0
LINE
  8
RecepPins
  6
CONTINUOUS
 10
18.750000
 20
23.800000
 11
18.750000
 21
21.800000
 39
3
 62
131
  0
LINE
  8
RecepPins
  6
CONTINUOUS
 10
19.050000
 20
23.800000
 11
19.050000
 21
21.800000
 39
3
 62
131
  0
LINE
  8
RecepPins
  6
CONTINUOUS
 10
15.000000
 20
31.450000
 11
15.000000
 21
31.150000
 39
3
 62
131
  0
LINE
  8
RecepPins
  6
CONTINUOUS
 10
15.000000
 20
31.450000
 11
15.300000
 21
31.450000
 39
3
 62
131
  0
LINE
  8
RecepPins
  6
CONTINUOUS
 10
15.300000
 20
31.450000
 11
15.300000
 21
31.150000
 39
3
 62
131
  0
LINE
  8
RecepPins
  6
CONTINUOUS
 10
15.000000
 20
31.150000
 11
15.300000
 21
31.150000
 39
3
 62
131
  0
LINE
  8
RecepPins
  6
CONTINUOUS
 10
16.250000
 20
31.450000
 11
16.250000
 21
31.150000
 39
3
 62
131
  0
LINE
  8
RecepPins
  6
CONTINUOUS
 10
16.250000
 20
31.450000
 11
16.550000
 21
31.450000
 39
3
 62
131
  0
LINE
  8
RecepPins
  6
CONTINUOUS
 10
16.550000
 20
31.450000
 11
16.550000
 21
31.150000
 39
3
 62
131
  0
LINE
  8
RecepPins
  6
CONTINUOUS
 10
16.250000
 20
31.150000
 11
16.550000
 21
31.150000
 39
3
 62
131
  0
LINE
  8
RecepPins
  6
CONTINUOUS
 10
17.500000
 20
31.450000
 11
17.500000
 21
31.150000
 39
3
 62
131
  0
LINE
  8
RecepPins
  6
CONTINUOUS
 10
17.500000
 20
31.450000
 11
17.800000
 21
31.450000
 39
3
 62
131
  0
LINE
  8
RecepPins
  6
CONTINUOUS
 10
17.800000
 20
31.450000
 11
17.800000
 21
31.150000
 39
3
 62
131
  0
LINE
  8
RecepPins
  6
CONTINUOUS
 10
17.500000
 20
31.150000
 11
17.800000
 21
31.150000
 39
3
 62
131
  0
LINE
  8
RecepPins
  6
CONTINUOUS
 10
18.750000
 20
31.450000
 11
18.750000
 21
31.150000
 39
3
 62
131
  0
LINE
  8
RecepPins
  6
CONTINUOUS
 10
18.750000
 20
31.450000
 11
19.050000
 21
31.450000
 39
3
 62
131
  0
LINE
  8
RecepPins
  6
CONTINUOUS
 10
19.050000
 20
31.450000
 11
19.050000
 21
31.150000
 39
3
 62
131
  0
LINE
  8
RecepPins
  6
CONTINUOUS
 10
18.750000
 20
31.150000
 11
19.050000
 21
31.150000
 39
3
 62
131
  0
LINE
  8
PlugPCB
  6
CONTINUOUS
 10
28.300000
 20
30.000000
 11
28.300000
 21
28.410000
 39
3
 62
163
  0
LINE
  8
Screws
  6
CONTINUOUS
 10
30.610000
 20
33.050000
 11
30.610000
 21
31.550000
 39
3
 62
23
  0
LINE
  8
Screws
  6
CONTINUOUS
 10
26.610000
 20
33.800000
 11
26.610000
 21
30.800000
 39
3
 62
23
  0
LINE
  8
Screws
  6
CONTINUOUS
 10
26.610000
 20
33.050000
 11
30.610000
 21
33.050000
 39
3
 62
23
  0
LINE
  8
Screws
  6
CONTINUOUS
 10
26.610000
 20
31.550000
 11
30.610000
 21
31.550000
 39
3
 62
23
  0
ARC
  8
Screws
  6
CONTINUOUS
 10
25.910000
 20
33.600000
 40
0.200000
 50
90.000000
 51
180.000000
 39
3
 62
23
  0
LINE
  8
Screws
  6
CONTINUOUS
 10
25.910000
 20
33.800000
 11
26.610000
 21
33.800000
 39
3
 62
23
  0
ARC
  8
Screws
  6
CONTINUOUS
 10
25.910000
 20
31.000000
 40
0.200000
 50
180.000000
 51
270.000000
 39
3
 62
23
  0
LINE
  8
Screws
  6
CONTINUOUS
 10
25.710000
 20
33.600000
 11
25.710000
 21
31.000000
 39
3
 62
23
  0
LINE
  8
Screws
  6
CONTINUOUS
 10
25.910000
 20
30.800000
 11
26.610000
 21
30.800000
 39
3
 62
23
  0
LINE
  8
Screws
  6
CONTINUOUS
 10
31.360000
 20
32.410000
 11
32.860000
 21
32.410000
 39
3
 62
23
  0
LINE
  8
Screws
  6
CONTINUOUS
 10
30.610000
 20
28.410000
 11
33.610000
 21
28.410000
 39
3
 62
23
  0
LINE
  8
Screws
  6
CONTINUOUS
 10
31.360000
 20
28.410000
 11
31.360000
 21
32.410000
 39
3
 62
23
  0
LINE
  8
Screws
  6
CONTINUOUS
 10
32.860000
 20
28.410000
 11
32.860000
 21
32.410000
 39
3
 62
23
  0
ARC
  8
Screws
  6
CONTINUOUS
 10
30.810000
 20
27.710000
 40
0.200000
 50
180.000000
 51
270.000000
 39
3
 62
23
  0
LINE
  8
Screws
  6
CONTINUOUS
 10
30.610000
 20
27.710000
 11
30.610000
 21
28.410000
 39
3
 62
23
  0
ARC
  8
Screws
  6
CONTINUOUS
 10
33.410000
 20
27.710000
 40
0.200000
 50
270.000000
 51
0.000000
 39
3
 62
23
  0
LINE
  8
Screws
  6
CONTINUOUS
 10
30.810000
 20
27.510000
 11
33.410000
 21
27.510000
 39
3
 62
23
  0
LINE
  8
Screws
  6
CONTINUOUS
 10
33.610000
 20
27.710000
 11
33.610000
 21
28.410000
 39
3
 62
23
  0
LINE
  8
Brackets
  6
DASH
 10
32.710000
 20
33.800000
 11
32.710000
 21
30.000000
 39
3
 62
8
  0
LINE
  8
Brackets
  6
DASH
 10
31.510000
 20
33.800000
 11
31.510000
 21
30.000000
 39
3
 62
8
  0
LINE
  8
Brackets
  6
CONTINUOUS
 10
28.300000
 20
33.800000
 11
28.300000
 21
30.000000
 39
3
 62
8
  0
LINE
  8
Brackets
  6
CONTINUOUS
 10
28.300000
 20
33.800000
 11
34.650000
 21
33.800000
 39
3
 62
8
  0
LINE
  8
Brackets
  6
CONTINUOUS
 10
28.300000
 20
30.000000
 11
34.650000
 21
30.000000
 39
3
 62
8
  0
LINE
  8
Brackets
  6
CONTINUOUS
 10
34.650000
 20
33.800000
 11
34.650000
 21
30.000000
 39
3
 62
8
  0
LINE
  8
Brackets
  6
DASH
 10
28.300000
 20
32.900000
 11
34.650000
 21
32.900000
 39
3
 62
8
  0
LINE
  8
Brackets
  6
DASH
 10
28.300000
 20
31.700000
 11
34.650000
 21
31.700000
 39
3
 62
8
  0
LINE
  8
PlugPCB
  6
CONTINUOUS
 10
10.000000
 20
30.000000
 11
24.000000
 21
30.000000
 39
3
 62
163
  0
LINE
  8
PlugPCB
  6
CONTINUOUS
 10
10.000000
 20
28.410000
 11
24.000000
 21
28.410000
 39
3
 62
163
  0
LINE
  8
DImension
  6
DASHDOTDOT
 10
24.000000
 20
31.000000
 11
24.000000
 21
27.000000
 39
1
 62
7
  0
LINE
  8
DImension
  6
DASHDOTDOT
 10
10.000000
 20
31.000000
 11
10.000000
 21
27.000000
 39
1
 62
7
  0
LINE
  8
RecepPCB
  6
CONTINUOUS
 10
26.610000
 20
36.000000
 11
26.610000
 21
26.000000
 39
3
 62
221
  0
LINE
  8
RecepPCB
  6
CONTINUOUS
 10
28.200000
 20
36.000000
 11
28.200000
 21
26.000000
 39
3
 62
221
  0
LINE
  8
DImension
  6
DASHDOTDOT
 10
38.500000
 20
31.000000
 11
38.500000
 21
27.000000
 39
1
 62
7
  0
LINE
  8
DImension
  6
DASHDOTDOT
 10
26.000000
 20
36.000000
 11
29.000000
 21
36.000000
 39
1
 62
7
  0
LINE
  8
DImension
  6
DASHDOTDOT
 10
26.000000
 20
26.000000
 11
29.000000
 21
26.000000
 39
1
 62
7
  0
LINE
  8
PlugPCB
  6
CONTINUOUS
 10
28.300000
 20
30.000000
 11
38.500000
 21
30.000000
 39
3
 62
163
  0
LINE
  8
PlugPCB
  6
CONTINUOUS
 10
28.300000
 20
28.410000
 11
38.500000
 21
28.410000
 39
3
 62
163
  0
LINE
  8
RecepPCB
  6
CONTINUOUS
 10
9.000000
 20
21.800000
 11
25.000000
 21
21.800000
 39
3
 62
221
  0
LINE
  8
RecepPCB
  6
CONTINUOUS
 10
9.000000
 20
23.390000
 11
25.000000
 21
23.390000
 39
3
 62
221
  0
LINE
  8
PlugPCB
  6
CONTINUOUS
 10
10.000000
 20
21.700000
 11
24.000000
 21
21.700000
 39
3
 62
163
  0
LINE
  8
DImension
  6
DASHDOTDOT
 10
9.000000
 20
24.000000
 11
9.000000
 21
21.000000
 39
1
 62
7
  0
LINE
  8
DImension
  6
DASHDOTDOT
 10
25.000000
 20
24.000000
 11
25.000000
 21
21.000000
 39
1
 62
7
  0
LINE
  8
DImension
  6
DASHDOTDOT
 10
10.000000
 20
22.500000
 11
10.000000
 21
10.500000
 39
1
 62
7
  0
LINE
  8
DImension
  6
DASHDOTDOT
 10
24.000000
 20
22.500000
 11
24.000000
 21
10.500000
 39
1
 62
7
  0
CIRCLE
  8
Screws
  6
CONTINUOUS
 10
12.460000
 20
32.300000
 40
1.500000
 39
3
 62
23
  0
CIRCLE
  8
Brackets
  6
CONTINUOUS
 10
12.460000
 20
32.300000
 40
0.600000
 39
3
 62
8
  0
LINE
  8
Brackets
  6
DASH
 10
11.860000
 20
33.800000
 11
11.860000
 21
30.000000
 39
3
 62
8
  0
LINE
  8
Brackets
  6
DASH
 10
13.060000
 20
33.800000
 11
13.060000
 21
30.000000
 39
3
 62
8
  0
CIRCLE
  8
Screws
  6
DASH
 10
12.460000
 20
32.300000
 40
0.750000
 39
3
 62
23
  0
LINE
  8
Screws
  6
CONTINUOUS
 10
13.210000
 20
19.390000
 11
11.710000
 21
19.390000
 39
3
 62
23
  0
LINE
  8
Screws
  6
CONTINUOUS
 10
13.960000
 20
23.390000
 11
10.960000
 21
23.390000
 39
3
 62
23
  0
LINE
  8
Screws
  6
CONTINUOUS
 10
13.210000
 20
23.390000
 11
13.210000
 21
19.390000
 39
3
 62
23
  0
LINE
  8
Screws
  6
CONTINUOUS
 10
11.710000
 20
23.390000
 11
11.710000
 21
19.390000
 39
3
 62
23
  0
ARC
  8
Screws
  6
CONTINUOUS
 10
13.760000
 20
24.090000
 40
0.200000
 50
0.000000
 51
90.000000
 39
3
 62
23
  0
LINE
  8
Screws
  6
CONTINUOUS
 10
13.960000
 20
24.090000
 11
13.960000
 21
23.390000
 39
3
 62
23
  0
ARC
  8
Screws
  6
CONTINUOUS
 10
11.160000
 20
24.090000
 40
0.200000
 50
90.000000
 51
180.000000
 39
3
 62
23
  0
LINE
  8
Screws
  6
CONTINUOUS
 10
13.760000
 20
24.290000
 11
11.160000
 21
24.290000
 39
3
 62
23
  0
LINE
  8
Screws
  6
CONTINUOUS
 10
10.960000
 20
24.090000
 11
10.960000
 21
23.390000
 39
3
 62
23
  0
CIRCLE
  8
Screws
  6
CONTINUOUS
 10
12.460000
 20
17.890000
 40
1.500000
 39
3
 62
23
  0
CIRCLE
  8
Screws
  6
DASH
 10
12.460000
 20
17.890000
 40
0.750000
 39
3
 62
23
  0
CIRCLE
  8
Brackets
  6
CONTINUOUS
 10
12.460000
 20
17.890000
 40
0.600000
 39
3
 62
8
  0
LINE
  8
Screws
  6
CONTINUOUS
 10
11.710000
 20
32.410000
 11
13.210000
 21
32.410000
 39
3
 62
23
  0
LINE
  8
Screws
  6
CONTINUOUS
 10
10.960000
 20
28.410000
 11
13.960000
 21
28.410000
 39
3
 62
23
  0
LINE
  8
Screws
  6
CONTINUOUS
 10
11.710000
 20
28.410000
 11
11.710000
 21
32.410000
 39
3
 62
23
  0
LINE
  8
Screws
  6
CONTINUOUS
 10
13.210000
 20
28.410000
 11
13.210000
 21
32.410000
 39
3
 62
23
  0
ARC
  8
Screws
  6
CONTINUOUS
 10
11.160000
 20
27.710000
 40
0.200000
 50
180.000000
 51
270.000000
 39
3
 62
23
  0
LINE
  8
Screws
  6
CONTINUOUS
 10
10.960000
 20
27.710000
 11
10.960000
 21
28.410000
 39
3
 62
23
  0
ARC
  8
Screws
  6
CONTINUOUS
 10
13.760000
 20
27.710000
 40
0.200000
 50
270.000000
 51
0.000000
 39
3
 62
23
  0
LINE
  8
Screws
  6
CONTINUOUS
 10
11.160000
 20
27.510000
 11
13.760000
 21
27.510000
 39
3
 62
23
  0
LINE
  8
Screws
  6
CONTINUOUS
 10
13.960000
 20
27.710000
 11
13.960000
 21
28.410000
 39
3
 62
23
  0
LINE
  8
Brackets
  6
CONTINUOUS
 10
10.870000
 20
33.800000
 11
14.050000
 21
33.800000
 39
3
 62
8
  0
LINE
  8
Brackets
  6
CONTINUOUS
 10
10.870000
 20
33.800000
 11
10.870000
 21
30.000000
 39
3
 62
8
  0
LINE
  8
Brackets
  6
CONTINUOUS
 10
10.870000
 20
30.000000
 11
14.050000
 21
30.000000
 39
3
 62
8
  0
LINE
  8
Brackets
  6
CONTINUOUS
 10
14.050000
 20
33.800000
 11
14.050000
 21
30.000000
 39
3
 62
8
  0
LINE
  8
Brackets
  6
CONTINUOUS
 10
10.870000
 20
21.700000
 11
14.050000
 21
21.700000
 39
3
 62
8
  0
LINE
  8
Brackets
  6
CONTINUOUS
 10
10.870000
 20
21.700000
 11
10.870000
 21
15.350000
 39
3
 62
8
  0
LINE
  8
Brackets
  6
CONTINUOUS
 10
10.870000
 20
15.350000
 11
14.050000
 21
15.350000
 39
3
 62
8
  0
LINE
  8
Brackets
  6
CONTINUOUS
 10
14.050000
 20
21.700000
 11
14.050000
 21
15.350000
 39
3
 62
8
  0
CIRCLE
  8
Screws
  6
CONTINUOUS
 10
21.590000
 20
32.300000
 40
1.500000
 39
3
 62
23
  0
CIRCLE
  8
Brackets
  6
CONTINUOUS
 10
21.590000
 20
32.300000
 40
0.600000
 39
3
 62
8
  0
LINE
  8
Brackets
  6
CONTINUOUS
 10
20.090000
 20
33.800000
 11
20.090000
 21
30.000000
 39
3
 62
8
  0
LINE
  8
Brackets
  6
CONTINUOUS
 10
20.090000
 20
33.800000
 11
23.090000
 21
33.800000
 39
3
 62
8
  0
LINE
  8
Brackets
  6
CONTINUOUS
 10
20.090000
 20
30.000000
 11
23.090000
 21
30.000000
 39
3
 62
8
  0
LINE
  8
Brackets
  6
CONTINUOUS
 10
23.090000
 20
33.800000
 11
23.090000
 21
30.000000
 39
3
 62
8
  0
LINE
  8
Brackets
  6
DASH
 10
20.990000
 20
33.800000
 11
20.990000
 21
30.000000
 39
3
 62
8
  0
LINE
  8
Brackets
  6
DASH
 10
22.190000
 20
33.800000
 11
22.190000
 21
30.000000
 39
3
 62
8
  0
CIRCLE
  8
Screws
  6
DASH
 10
21.590000
 20
32.300000
 40
0.750000
 39
3
 62
23
  0
LINE
  8
Brackets
  6
CONTINUOUS
 10
20.090000
 20
15.350000
 11
23.090000
 21
15.350000
 39
3
 62
8
  0
LINE
  8
Brackets
  6
CONTINUOUS
 10
23.090000
 20
21.700000
 11
23.090000
 21
15.350000
 39
3
 62
8
  0
LINE
  8
Brackets
  6
CONTINUOUS
 10
20.090000
 20
21.700000
 11
23.090000
 21
21.700000
 39
3
 62
8
  0
LINE
  8
Brackets
  6
CONTINUOUS
 10
20.090000
 20
21.700000
 11
20.090000
 21
15.350000
 39
3
 62
8
  0
LINE
  8
Screws
  6
CONTINUOUS
 10
22.340000
 20
19.390000
 11
20.840000
 21
19.390000
 39
3
 62
23
  0
LINE
  8
Screws
  6
CONTINUOUS
 10
23.090000
 20
23.390000
 11
20.090000
 21
23.390000
 39
3
 62
23
  0
LINE
  8
Screws
  6
CONTINUOUS
 10
22.340000
 20
23.390000
 11
22.340000
 21
19.390000
 39
3
 62
23
  0
LINE
  8
Screws
  6
CONTINUOUS
 10
20.840000
 20
23.390000
 11
20.840000
 21
19.390000
 39
3
 62
23
  0
ARC
  8
Screws
  6
CONTINUOUS
 10
22.890000
 20
24.090000
 40
0.200000
 50
0.000000
 51
90.000000
 39
3
 62
23
  0
LINE
  8
Screws
  6
CONTINUOUS
 10
23.090000
 20
24.090000
 11
23.090000
 21
23.390000
 39
3
 62
23
  0
ARC
  8
Screws
  6
CONTINUOUS
 10
20.290000
 20
24.090000
 40
0.200000
 50
90.000000
 51
180.000000
 39
3
 62
23
  0
LINE
  8
Screws
  6
CONTINUOUS
 10
22.890000
 20
24.290000
 11
20.290000
 21
24.290000
 39
3
 62
23
  0
LINE
  8
Screws
  6
CONTINUOUS
 10
20.090000
 20
24.090000
 11
20.090000
 21
23.390000
 39
3
 62
23
  0
CIRCLE
  8
Screws
  6
CONTINUOUS
 10
21.590000
 20
17.890000
 40
1.500000
 39
3
 62
23
  0
CIRCLE
  8
Screws
  6
DASH
 10
21.590000
 20
17.890000
 40
0.750000
 39
3
 62
23
  0
CIRCLE
  8
Brackets
  6
CONTINUOUS
 10
21.590000
 20
17.890000
 40
0.600000
 39
3
 62
8
  0
LINE
  8
Screws
  6
CONTINUOUS
 10
20.840000
 20
32.410000
 11
22.340000
 21
32.410000
 39
3
 62
23
  0
LINE
  8
Screws
  6
CONTINUOUS
 10
20.090000
 20
28.410000
 11
23.090000
 21
28.410000
 39
3
 62
23
  0
LINE
  8
Screws
  6
CONTINUOUS
 10
20.840000
 20
28.410000
 11
20.840000
 21
32.410000
 39
3
 62
23
  0
LINE
  8
Screws
  6
CONTINUOUS
 10
22.340000
 20
28.410000
 11
22.340000
 21
32.410000
 39
3
 62
23
  0
ARC
  8
Screws
  6
CONTINUOUS
 10
20.290000
 20
27.710000
 40
0.200000
 50
180.000000
 51
270.000000
 39
3
 62
23
  0
LINE
  8
Screws
  6
CONTINUOUS
 10
20.090000
 20
27.710000
 11
20.090000
 21
28.410000
 39
3
 62
23
  0
ARC
  8
Screws
  6
CONTINUOUS
 10
22.890000
 20
27.710000
 40
0.200000
 50
270.000000
 51
0.000000
 39
3
 62
23
  0
LINE
  8
Screws
  6
CONTINUOUS
 10
20.290000
 20
27.510000
 11
22.890000
 21
27.510000
 39
3
 62
23
  0
LINE
  8
Screws
  6
CONTINUOUS
 10
23.090000
 20
27.710000
 11
23.090000
 21
28.410000
 39
3
 62
23
  0
LINE
  8
DImension
  6
DASHDOT
 10
17.025000
 20
25.554867
 11
17.025000
 21
11.711937
 39
1
 62
7
  0
ENDSEC
  0
EOF
