%
M48
M72
T01C0.0039
T02C0.0080
T03C0.0118
T04C0.0200
T05C0.0315
T06C0.0354
T07C0.0472
T08C0.0595
T09C0.1063
T10C0.1250
T11C0.1575
%
T01
X4724Y22953
X5197Y22953
X5197Y23465
X4724Y23465
X4724Y23937
X4213Y23937
X4213Y23465
X3701Y23937
X3701Y24449
X3228Y24449
X3209Y24941
X3209Y25453
X3209Y25945
X3209Y26457
X3209Y26949
X3209Y27441
X2717Y27441
X2717Y26949
X2717Y26457
X2717Y25945
X2205Y25945
X2205Y26457
X2205Y26949
X2205Y27441
X2205Y27953
X2717Y27953
X3209Y27953
X4213Y27953
X4213Y27441
X4193Y26949
X4213Y26437
X4213Y25945
X4213Y25453
X5197Y25433
X6201Y25453
X6713Y25453
X7205Y25453
X7717Y25453
X7717Y25945
X7717Y26457
X7717Y26969
X7717Y27441
X7205Y27441
X7205Y26929
X7205Y26457
X6732Y26457
X6693Y26929
X6201Y26949
X6201Y27441
X6693Y27441
X6693Y27953
X6220Y27953
X7205Y27953
X7717Y27953
X6201Y26437
X6220Y25945
X6713Y25945
X7205Y25945
X6713Y24449
X6220Y23937
X5709Y23957
X5709Y23465
X5709Y24449
X4724Y24449
X4211Y24447
X2717Y24449
X2717Y24941
X2717Y25453
X2205Y25453
X2205Y24941
X2205Y24449
T02
X1772Y24961
X1496Y24961
X1220Y24961
X1535Y25512
X1063Y25984
X827Y26496
X1535Y27087
X1654Y28307
X1929Y28307
X1378Y28307
X945Y28819
X945Y29094
X945Y29370
X1378Y29882
X1654Y29882
X1929Y29882
X2441Y29370
X2441Y29094
X2441Y28819
X3307Y29843
X2874Y30276
X3110Y30787
X4331Y30315
X4961Y29724
X4961Y29449
X4961Y29173
X4961Y28898
X4961Y28622
X4961Y28346
X4213Y28346
X6220Y28307
X7480Y28819
X7480Y29094
X7480Y29370
X7953Y29882
X8228Y29882
X8504Y29882
X9291Y30354
X10394Y31181
X9094Y32165
X7559Y31220
X7165Y30276
X6732Y29843
X6024Y29882
X5709Y30315
X5039Y30945
X5827Y32402
X4094Y32638
X3071Y34016
X1929Y35748
X354Y34055
X4409Y35669
X3110Y37717
X7559Y37717
X9055Y35551
X11339Y35591
X10354Y33858
X12559Y33307
X12559Y32992
X13819Y32992
X13819Y33307
X14291Y33307
X14291Y32992
X15551Y32992
X15551Y33307
X17047Y32323
X15551Y31732
X14291Y31732
X13819Y31102
X14291Y30472
X15551Y30472
X15551Y29213
X14291Y29213
X13819Y29213
X12559Y29213
X14291Y27953
X14291Y27323
X13819Y27323
X12559Y27323
X10433Y26417
X9252Y26496
X8858Y25984
X8386Y25512
X8425Y25000
X8150Y25000
X8701Y25000
X11220Y23346
X12559Y23858
X13819Y23858
X14291Y23858
X14291Y22913
X13819Y22283
X14291Y21654
X15551Y21654
X15551Y20394
X16339Y20000
X17205Y20669
X17205Y21299
X17992Y19488
X18031Y18976
X16732Y18504
X15551Y19134
X14291Y19134
X13819Y18504
X14291Y17874
X15551Y17874
X15551Y16614
X14291Y16614
X13819Y16614
X14094Y15906
X14291Y15354
X13819Y15354
X13819Y14724
X14291Y14094
X13780Y13465
X14055Y13150
X13819Y12835
X14055Y12520
X14291Y12835
X13780Y12205
X14213Y11890
X14016Y11575
X13819Y10709
X14291Y10315
X15551Y10315
X15551Y11575
X16969Y12205
X16929Y13031
X17323Y13307
X18543Y12520
X19528Y13031
X20276Y13898
X19173Y14331
X18386Y15945
X20433Y17441
X20276Y18346
X20748Y19449
X20669Y20000
X21890Y19646
X22165Y19370
X25079Y18701
X27402Y20906
X26063Y23543
X23307Y23661
X20709Y22362
X19567Y21654
X18189Y23110
X17126Y25315
X15551Y24213
X15551Y22913
X12559Y22283
X11299Y20748
X12559Y20394
X13819Y20394
X14291Y20394
X12559Y18504
X11299Y18465
X12559Y16614
X11496Y15945
X11496Y15039
X12559Y14724
X12559Y12835
X11811Y11890
X10709Y11890
X10157Y12323
X10157Y13228
X12559Y10945
X12559Y9055
X12165Y8425
X12559Y7795
X12559Y7165
X11417Y7343
X10354Y7205
X9882Y6142
X8425Y7008
X7402Y7008
X6417Y7008
X6417Y7323
X6417Y6693
X6378Y5591
X5866Y5551
X5157Y5000
X4882Y5551
X4252Y5630
X4370Y6063
X4213Y7323
X6063Y8543
X6890Y9370
X6024Y10433
X6614Y11181
X6378Y11614
X6654Y12205
X7126Y12677
X7126Y11732
X7126Y10630
X5197Y11260
X4961Y12598
X5276Y14961
X4803Y15394
X4685Y15748
X4094Y16457
X4803Y17283
X4409Y17953
X5197Y18740
X5827Y19764
X6929Y17953
X6890Y17362
X7323Y16732
X7323Y15748
X6929Y15748
X2953Y14921
X2323Y15709
X2362Y17205
X1378Y18031
X512Y17126
X1457Y19213
X1890Y19724
X2913Y19016
X3898Y22087
X5000Y22087
X6024Y22087
X9488Y20748
X12087Y25472
X15551Y27323
X15551Y27953
X17165Y28661
X18661Y30512
X21299Y28268
X21850Y29567
X23031Y30000
X23031Y28701
X22283Y27126
X23583Y26024
X25748Y27953
X26024Y28307
X27126Y27559
X27598Y28031
X28465Y28071
X30354Y28307
X32047Y28031
X33110Y27323
X34370Y27323
X34843Y27323
X34843Y27953
X34409Y28031
X34606Y28780
X34370Y29213
X34843Y29213
X34449Y29843
X34843Y30472
X34370Y31102
X34882Y31732
X36142Y31732
X36654Y32441
X36102Y32992
X36102Y33307
X36693Y33465
X37795Y33465
X38898Y33504
X38898Y33976
X38898Y34488
X38780Y35118
X39488Y34921
X40039Y34488
X40512Y34646
X40039Y33976
X40039Y33504
X38898Y31890
X40039Y30591
X39488Y30079
X39488Y29370
X40039Y28898
X40591Y29370
X40591Y30079
X42205Y28386
X42992Y29134
X43780Y28386
X44449Y28228
X42992Y27638
X44449Y25866
X43701Y24291
X44449Y23583
X43898Y22953
X44449Y21378
X43898Y19291
X44449Y19173
X43898Y16850
X44449Y16339
X44449Y13583
X43780Y12874
X43780Y12087
X44449Y10827
X42953Y8819
X44449Y7677
X44449Y4961
X41260Y5000
X39055Y5000
X38543Y5787
X38189Y6102
X37913Y5354
X36654Y6102
X36102Y6535
X36732Y6693
X36102Y7165
X36102Y7795
X37047Y7756
X37323Y7480
X37598Y7756
X38189Y8543
X39213Y8268
X40472Y8386
X38976Y10079
X38622Y10906
X37402Y10039
X36102Y10315
X34843Y10315
X34370Y10945
X34843Y11575
X36102Y11575
X36102Y12835
X34843Y12835
X34370Y12835
X33110Y12835
X33110Y10945
X33110Y9055
X34370Y9055
X34843Y9055
X36102Y9055
X34843Y7795
X34606Y7480
X34370Y7165
X34449Y6535
X34843Y6535
X34370Y5906
X34606Y5591
X34370Y5276
X34843Y5276
X35276Y4252
X36102Y5276
X36732Y3425
X35906Y3031
X37362Y1969
X37913Y2283
X38189Y3071
X38543Y3858
X41457Y2756
X44449Y2165
X36260Y354
X34252Y2205
X33701Y1693
X33150Y2205
X33150Y2913
X33701Y3425
X34252Y2913
X32480Y3937
X31811Y3858
X32795Y5000
X33110Y5276
X32126Y5433
X32402Y6496
X32795Y6496
X33110Y7165
X30984Y7480
X30630Y8268
X29882Y7402
X28937Y8819
X29646Y11299
X30669Y14213
X28622Y14213
X26102Y15906
X22913Y15472
X21535Y12756
X20276Y11417
X19606Y11535
X19646Y12008
X17874Y11417
X17913Y9685
X17598Y9094
X17175Y8789
X16850Y8425
X17165Y7835
X16811Y7520
X17913Y7756
X18465Y7441
X18386Y8268
X18386Y9094
X19646Y9055
X20709Y8937
X21417Y9646
X20315Y10118
X22087Y8425
X20827Y7756
X21417Y7126
X20787Y7047
X20787Y6181
X19606Y5276
X17795Y4213
X17402Y3937
X15748Y4488
X15551Y5276
X14488Y4882
X14291Y5276
X14291Y5748
X13819Y5276
X13819Y6535
X13819Y7165
X14291Y7795
X13858Y7913
X14291Y8425
X13819Y8701
X13819Y9055
X14291Y9055
X15551Y8740
X15551Y7795
X15551Y6535
X14961Y4213
X13780Y2283
X13268Y1102
X13228Y354
X16142Y2008
X16890Y1102
X17244Y354
X20354Y2913
X22126Y354
X24252Y2835
X26969Y4055
X30079Y4252
X30118Y5079
X30079Y2953
X32913Y354
X26929Y354
X24016Y6102
X25472Y9252
X33110Y14724
X34370Y14724
X34843Y14094
X36102Y14094
X37244Y14213
X37559Y13661
X38307Y14055
X38071Y14449
X38346Y15236
X37835Y15984
X37283Y15669
X37244Y15236
X36102Y15354
X34843Y15354
X34606Y16299
X34370Y16614
X34843Y16614
X34370Y17244
X34606Y17559
X34843Y17874
X34370Y18504
X34646Y18819
X34843Y19134
X34331Y19134
X33110Y18504
X33110Y17874
X32598Y17559
X33071Y17008
X33110Y16614
X36102Y16614
X36378Y16929
X37008Y17244
X37008Y16575
X38622Y17559
X38858Y16969
X39252Y16969
X40039Y17244
X39528Y17874
X39252Y18819
X38346Y18819
X38071Y18504
X37559Y18150
X36929Y18504
X36102Y19134
X36378Y19764
X36575Y20079
X36102Y20394
X37008Y20748
X36102Y21654
X36654Y22205
X37047Y21969
X36102Y22913
X36102Y23858
X37047Y24291
X37283Y23504
X37835Y23898
X38819Y22323
X38819Y21024
X38937Y20354
X38110Y20079
X36929Y19449
X36102Y17874
X34843Y20394
X34803Y20748
X34449Y21024
X34803Y21575
X34370Y22283
X34685Y22559
X34843Y22913
X34843Y23858
X34370Y23858
X33110Y23858
X33110Y22283
X33110Y21654
X32362Y21535
X33110Y20394
X34370Y20394
X31378Y23543
X29213Y23583
X27008Y26063
X31496Y26654
X32717Y29016
X33110Y29213
X32677Y29528
X33071Y30157
X33110Y31102
X32402Y31181
X32047Y30197
X31024Y30197
X29606Y31181
X28996Y31693
X27835Y31693
X27520Y30787
X27323Y30197
X28996Y29843
X29646Y33189
X27283Y33189
X24528Y31614
X23780Y32913
X23031Y32913
X22047Y32913
X22047Y31457
X20079Y33228
X20079Y34724
X19724Y35079
X19213Y36260
X18780Y36457
X18386Y36102
X19134Y37717
X21142Y36299
X22953Y37717
X24882Y36260
X25315Y36535
X26102Y36535
X26890Y36535
X27677Y36535
X26378Y37717
X29094Y37717
X29252Y36535
X30039Y36535
X30827Y36535
X31614Y36535
X32480Y37717
X33819Y36220
X36181Y36142
X36220Y37717
X40472Y37717
X44449Y33583
X44449Y30866
X39646Y27638
X39252Y27205
X38622Y27205
X38228Y27638
X37913Y27244
X38937Y26142
X38937Y25787
X39370Y26339
X36102Y27323
X36102Y27953
X36063Y28583
X36102Y29213
X36063Y29843
X36102Y30472
X37126Y31063
X37559Y30551
X37126Y29528
X34843Y32992
X34843Y33307
X34370Y33307
X34370Y32992
X33110Y32992
X33110Y33307
X24488Y35000
X23425Y34961
X23425Y35866
X16102Y35630
X13819Y35591
X14961Y37717
X11535Y37717
X7520Y33976
X12559Y31102
X10433Y28858
X8976Y28819
X8976Y29094
X8976Y29370
X8543Y28307
X8228Y28307
X7953Y28307
X8386Y27087
X827Y30315
X354Y30276
X354Y25197
X354Y22323
X669Y13189
X669Y11299
X3583Y9409
X354Y8228
X394Y6220
X2441Y6181
X2913Y5709
X4252Y3465
X4252Y2559
X3858Y2559
X2874Y2008
X2874Y1732
X2874Y1457
X3346Y945
X3622Y945
X3898Y945
X3858Y354
X2441Y748
X5354Y1732
X6142Y2559
X6890Y2717
X6772Y3150
X6299Y3425
X6378Y3780
X6535Y4134
X8465Y5079
X8819Y3110
X9567Y2717
X10157Y1969
X9685Y1102
X9409Y354
X6929Y1772
X6142Y906
X11831Y5591
X12559Y5276
X12598Y4488
X10000Y10472
X15551Y14094
X15551Y15354
X20787Y25472
X28583Y17992
X37520Y12283
X38858Y12480
X40276Y19173
T03
X472Y472
X12283Y9685
X12047Y10000
X12283Y10315
X12047Y10630
X12047Y11260
X12047Y13780
X12283Y14094
X12047Y14409
X12047Y15039
X12047Y15669
X12283Y15984
X12047Y16299
X12047Y16929
X12283Y17244
X12047Y17559
X12283Y17874
X12047Y18189
X12047Y18819
X12283Y19134
X15787Y18504
X16024Y18819
X16024Y19449
X16024Y18189
X16024Y17559
X15787Y17244
X16024Y16929
X16024Y16299
X15787Y15984
X16024Y15669
X16024Y15039
X15787Y14724
X16024Y14409
X16024Y13937
X16024Y11260
X15787Y10945
X16024Y10630
X16024Y10000
X16024Y9370
X6929Y16811
X5276Y20354
X4724Y20354
X4173Y20354
X3622Y20354
X3071Y20354
X9843Y22835
X9843Y23386
X9843Y23937
X9843Y24488
X12047Y23543
X12283Y23228
X15787Y23543
X16024Y23228
X16024Y27638
X16024Y28268
X15787Y28583
X16024Y28898
X16024Y29528
X15787Y29843
X16024Y30157
X16024Y30787
X15787Y31102
X16024Y31417
X16024Y32047
X15787Y32362
X16024Y32677
X12283Y32362
X12047Y32047
X12283Y31732
X12047Y31417
X12047Y30787
X12283Y30472
X12047Y30157
X12283Y29843
X12047Y29528
X12047Y28898
X12283Y28583
X12047Y28268
X12283Y27953
X12047Y27638
X9291Y27953
X6299Y32008
X12047Y32677
X787Y27953
X472Y37598
X24331Y17874
X32638Y19449
X32874Y19764
X32638Y20079
X32638Y20709
X32638Y22598
X32874Y22913
X32638Y23543
X36575Y23228
X36575Y22598
X40197Y22717
X40197Y21929
X36575Y27638
X36531Y32980
X36531Y33988
X44331Y37598
X32638Y15669
X32874Y15354
X32638Y15039
X32638Y14409
X32874Y14094
X32638Y13780
X32874Y13465
X32638Y13150
X32638Y12520
X32874Y12205
X32638Y11890
X32874Y11575
X32638Y11260
X32638Y10630
X32874Y10315
X32638Y10000
X32874Y9685
X32638Y9370
X31575Y8740
X36378Y9685
X36614Y9370
X36614Y10000
X36614Y10630
X36378Y10945
X36614Y11260
X36614Y11890
X36378Y12205
X36614Y12520
X36614Y13150
X36378Y13465
X36614Y13780
X36614Y14409
X36378Y14724
X36614Y15039
X44331Y472
T04
X2677Y2726
X2677Y3219
X1890Y3219
X1890Y2726
X1890Y3711
X1890Y4203
X2677Y4203
X2677Y3711
X2681Y10518
X1894Y10518
X1894Y11010
X1894Y11502
X1894Y11994
X2681Y11994
X2681Y11502
X2681Y11010
X2681Y12486
X2681Y12978
X2681Y13470
X2681Y13963
X1894Y13963
X1894Y13470
X1894Y12978
X1894Y12486
T05
X14055Y24843
X14055Y34291
X34606Y34291
X34606Y24843
T06
X40945Y25079
X40945Y25866
X41732Y25866
X41732Y25079
X41732Y24291
X41732Y23504
X40945Y23504
X40945Y24291
X40945Y22717
X41732Y22717
X41732Y21929
X40945Y21929
X40945Y21142
X41732Y21142
X41732Y20354
X41732Y19567
X40945Y19567
X40945Y20354
X40945Y18780
X41732Y18780
X41732Y17992
X40945Y17992
X40945Y17205
X41732Y17205
X41732Y16417
X41732Y15630
X40945Y15630
X40945Y16417
X40945Y14843
X41732Y14843
X41732Y14055
X40945Y14055
X40945Y13268
X41732Y13268
X41732Y12480
X41732Y11693
X40945Y11693
X40945Y12480
X40945Y10906
X41732Y10906
X41732Y10118
X40945Y10118
X39921Y7795
X39921Y7008
X39921Y6220
X39921Y5433
X39921Y4646
X39921Y3858
X39921Y3071
X39921Y2283
X39921Y1496
X39921Y709
X28110Y709
X28110Y1496
X28110Y2283
X28110Y3071
X28110Y3858
X28110Y4646
X28110Y5433
X28110Y6220
X28110Y7008
X28110Y7795
X16535Y3425
X15748Y3425
X15748Y2638
X16535Y2638
X14961Y2638
X14961Y3425
X14173Y3425
X13386Y3425
X13386Y2638
X14173Y2638
X12598Y2638
X11811Y2638
X11024Y2638
X11024Y3425
X11811Y3425
X12598Y3425
X40945Y26654
X41732Y26654
T07
X34606Y26339
X14055Y26339
X14055Y4291
X34606Y4291
T08
X1090Y5290
X1090Y1640
X1113Y9431
X1094Y15049
T09
X17244Y33661
X25906Y4921
T10
X26024Y11496
X42008Y7480
X17992Y27480
X2008Y31496
X2008Y7480
X42008Y31496
T11
X31024Y18386
M30
