G75*
G70*
%OFA0B0*%
%FSLAX24Y24*%
%IPPOS*%
%LPD*%
%AMOC8*
5,1,8,0,0,1.08239X$1,22.5*
%
%ADD10C,0.0000*%
%ADD11C,0.0060*%
%ADD12C,0.0079*%
%ADD13C,0.0039*%
D10*
X000151Y002076D02*
X000151Y012076D01*
X010151Y012076D01*
X010151Y002076D01*
X000151Y002076D01*
D11*
X004531Y010956D02*
X004791Y010956D01*
X004791Y011086D01*
X004748Y011130D01*
X004661Y011130D01*
X004618Y011086D01*
X004618Y010956D01*
X004618Y011043D02*
X004531Y011130D01*
X004531Y011251D02*
X004531Y011424D01*
X004531Y011338D02*
X004791Y011338D01*
X004705Y011251D01*
X005531Y011251D02*
X005705Y011424D01*
X005748Y011424D01*
X005791Y011381D01*
X005791Y011294D01*
X005748Y011251D01*
X005748Y011130D02*
X005661Y011130D01*
X005618Y011086D01*
X005618Y010956D01*
X005531Y010956D02*
X005791Y010956D01*
X005791Y011086D01*
X005748Y011130D01*
X005618Y011043D02*
X005531Y011130D01*
X005531Y011251D02*
X005531Y011424D01*
X006292Y011536D02*
X006466Y011536D01*
X006292Y011710D01*
X006292Y011753D01*
X006336Y011796D01*
X006422Y011796D01*
X006466Y011753D01*
X006587Y011796D02*
X006587Y011580D01*
X006630Y011536D01*
X006717Y011536D01*
X006760Y011580D01*
X006760Y011796D01*
X008411Y010292D02*
X008411Y010205D01*
X008455Y010162D01*
X008541Y010162D02*
X008585Y010248D01*
X008585Y010292D01*
X008541Y010335D01*
X008455Y010335D01*
X008411Y010292D01*
X008541Y010162D02*
X008671Y010162D01*
X008671Y010335D01*
X008628Y010040D02*
X008671Y009997D01*
X008671Y009910D01*
X008628Y009867D01*
X008455Y009867D01*
X008411Y009910D01*
X008411Y009997D01*
X008455Y010040D01*
X009631Y010900D02*
X009631Y010986D01*
X009675Y011030D01*
X009631Y011151D02*
X009631Y011324D01*
X009631Y011238D02*
X009891Y011238D01*
X009805Y011151D01*
X009848Y011030D02*
X009891Y010986D01*
X009891Y010900D01*
X009848Y010856D01*
X009675Y010856D01*
X009631Y010900D01*
D12*
X007663Y011806D02*
X007665Y011818D01*
X007670Y011829D01*
X007679Y011838D01*
X007690Y011843D01*
X007702Y011845D01*
X007714Y011843D01*
X007725Y011838D01*
X007734Y011829D01*
X007739Y011818D01*
X007741Y011806D01*
X007739Y011794D01*
X007734Y011783D01*
X007725Y011774D01*
X007714Y011769D01*
X007702Y011767D01*
X007690Y011769D01*
X007679Y011774D01*
X007670Y011783D01*
X007665Y011794D01*
X007663Y011806D01*
D13*
X007328Y011747D02*
X007328Y010605D01*
X006974Y010605D01*
X006974Y011747D01*
X007328Y011747D01*
M02*
