G75*
G70*
%OFA0B0*%
%FSLAX24Y24*%
%IPPOS*%
%LPD*%
%AMOC8*
5,1,8,0,0,1.08239X$1,22.5*
%
%ADD10R,0.0433X0.0394*%
%ADD11C,0.0525*%
%ADD12R,0.0394X0.0433*%
%ADD13R,0.0413X0.0256*%
%ADD14C,0.0280*%
%ADD15C,0.0100*%
%ADD16C,0.0200*%
%ADD17R,0.0280X0.0280*%
%ADD18C,0.0400*%
%ADD19C,0.0060*%
%ADD20C,0.0118*%
%ADD21C,0.0256*%
D10*
X004151Y010742D03*
X004151Y011411D03*
X005151Y011411D03*
X005151Y010742D03*
D11*
X005151Y010076D03*
X004151Y010076D03*
X003151Y010076D03*
X002151Y010076D03*
X001151Y010076D03*
X006151Y010076D03*
X007151Y010076D03*
D12*
X008351Y010842D03*
X008351Y011511D03*
X009151Y011511D03*
X009151Y010842D03*
D13*
X007604Y010802D03*
X007604Y011550D03*
X006698Y011176D03*
D14*
X003651Y009076D03*
X002651Y009076D03*
X001651Y009076D03*
X000551Y009076D03*
X000551Y008076D03*
X000551Y007076D03*
X000551Y006076D03*
X000551Y005076D03*
X000551Y004076D03*
X000851Y002776D03*
X001751Y002476D03*
X002751Y002476D03*
X003751Y002476D03*
X005051Y002476D03*
X007001Y004126D03*
X006751Y004976D03*
X007051Y005276D03*
X007351Y005576D03*
X007751Y004876D03*
X007351Y006976D03*
X005551Y007176D03*
X005251Y007476D03*
X004151Y007276D03*
X003151Y007276D03*
X002151Y007076D03*
X001951Y006076D03*
X001951Y005076D03*
X001951Y004076D03*
X001851Y011676D03*
X000651Y011676D03*
X003051Y011676D03*
X009751Y011676D03*
D15*
X000351Y011876D02*
X000351Y002276D01*
X005151Y002276D01*
X005151Y002576D01*
X003651Y002576D01*
X003651Y003367D01*
X002265Y003367D01*
X002142Y003490D01*
X002142Y003663D01*
X002142Y006763D01*
X002265Y006885D01*
X002465Y007085D01*
X002638Y007085D01*
X005275Y007085D01*
X005261Y007119D01*
X005261Y007186D01*
X005193Y007186D01*
X005087Y007230D01*
X005005Y007312D01*
X004961Y007419D01*
X004961Y007534D01*
X005005Y007640D01*
X005087Y007722D01*
X005193Y007766D01*
X005309Y007766D01*
X005415Y007722D01*
X005452Y007685D01*
X006465Y007685D01*
X006638Y007685D01*
X007138Y007185D01*
X007144Y007179D01*
X007187Y007222D01*
X007293Y007266D01*
X007409Y007266D01*
X007515Y007222D01*
X007597Y007140D01*
X007641Y007034D01*
X007641Y006919D01*
X007597Y006812D01*
X007560Y006775D01*
X007560Y005777D01*
X007597Y005740D01*
X007641Y005634D01*
X007641Y005519D01*
X007597Y005412D01*
X007515Y005330D01*
X007409Y005286D01*
X007341Y005286D01*
X007341Y005219D01*
X007297Y005112D01*
X007215Y005030D01*
X007109Y004986D01*
X007041Y004986D01*
X007041Y004919D01*
X006997Y004812D01*
X006915Y004730D01*
X006809Y004686D01*
X006693Y004686D01*
X006651Y004704D01*
X006651Y002576D01*
X005251Y002576D01*
X005251Y002276D01*
X009951Y002276D01*
X009951Y011876D01*
X009372Y011876D01*
X009406Y011867D01*
X009440Y011847D01*
X009468Y011819D01*
X009488Y011785D01*
X009498Y011747D01*
X009498Y011559D01*
X009200Y011559D01*
X009200Y011462D01*
X009498Y011462D01*
X009498Y011275D01*
X009488Y011236D01*
X009468Y011202D01*
X009442Y011176D01*
X009498Y011120D01*
X009498Y010919D01*
X009501Y010911D01*
X009501Y010307D01*
X009501Y009707D01*
X009448Y009578D01*
X009349Y009479D01*
X009221Y009426D01*
X009082Y009426D01*
X008953Y009479D01*
X008854Y009578D01*
X008801Y009707D01*
X008801Y010307D01*
X008801Y010911D01*
X008804Y010919D01*
X008804Y011120D01*
X008860Y011176D01*
X008834Y011202D01*
X008815Y011236D01*
X008804Y011275D01*
X008804Y011462D01*
X009102Y011462D01*
X009102Y011559D01*
X008804Y011559D01*
X008804Y011747D01*
X008815Y011785D01*
X008834Y011819D01*
X008862Y011847D01*
X008896Y011867D01*
X008930Y011876D01*
X008572Y011876D01*
X008606Y011867D01*
X008640Y011847D01*
X008668Y011819D01*
X008688Y011785D01*
X008698Y011747D01*
X008698Y011559D01*
X008400Y011559D01*
X008400Y011462D01*
X008698Y011462D01*
X008698Y011275D01*
X008688Y011236D01*
X008668Y011202D01*
X008642Y011176D01*
X008698Y011120D01*
X008698Y010919D01*
X008701Y010911D01*
X008701Y010772D01*
X008698Y010764D01*
X008698Y010563D01*
X008610Y010475D01*
X008301Y010475D01*
X008301Y010307D01*
X008301Y009707D01*
X008248Y009578D01*
X008149Y009479D01*
X008021Y009426D01*
X007882Y009426D01*
X007753Y009479D01*
X007654Y009578D01*
X007601Y009707D01*
X007601Y010307D01*
X007601Y010452D01*
X007534Y010452D01*
X007406Y010505D01*
X007387Y010524D01*
X007335Y010524D01*
X007247Y010612D01*
X007247Y010992D01*
X007335Y011080D01*
X007387Y011080D01*
X007406Y011099D01*
X007534Y011152D01*
X007786Y011152D01*
X007882Y011192D01*
X008045Y011192D01*
X008034Y011202D01*
X008015Y011236D01*
X008004Y011275D01*
X008004Y011462D01*
X008302Y011462D01*
X008302Y011559D01*
X008004Y011559D01*
X008004Y011747D01*
X008015Y011785D01*
X008034Y011819D01*
X008062Y011847D01*
X008096Y011867D01*
X008130Y011876D01*
X000351Y011876D01*
X000351Y011832D02*
X008047Y011832D01*
X008004Y011733D02*
X007951Y011733D01*
X007950Y011736D02*
X007931Y011770D01*
X007903Y011798D01*
X007869Y011818D01*
X007830Y011828D01*
X007618Y011828D01*
X007618Y011564D01*
X007961Y011564D01*
X007961Y011698D01*
X007950Y011736D01*
X007961Y011635D02*
X008004Y011635D01*
X007961Y011536D02*
X007961Y011403D01*
X007950Y011364D01*
X007931Y011330D01*
X007903Y011302D01*
X007869Y011283D01*
X007830Y011272D01*
X007618Y011272D01*
X007618Y011536D01*
X007590Y011536D01*
X007590Y011272D01*
X007377Y011272D01*
X007339Y011283D01*
X007305Y011302D01*
X007277Y011330D01*
X007257Y011364D01*
X007247Y011403D01*
X007247Y011536D01*
X007590Y011536D01*
X007590Y011564D01*
X007247Y011564D01*
X007247Y011698D01*
X007257Y011736D01*
X007277Y011770D01*
X007305Y011798D01*
X007339Y011818D01*
X007377Y011828D01*
X007590Y011828D01*
X007590Y011564D01*
X007618Y011564D01*
X007618Y011536D01*
X007961Y011536D01*
X007961Y011438D02*
X008004Y011438D01*
X008004Y011339D02*
X007936Y011339D01*
X008013Y011241D02*
X007055Y011241D01*
X007055Y011339D02*
X007272Y011339D01*
X007247Y011438D02*
X006984Y011438D01*
X006967Y011454D02*
X006430Y011454D01*
X006353Y011454D01*
X006349Y011458D01*
X006099Y011708D01*
X005971Y011761D01*
X005832Y011761D01*
X005082Y011761D01*
X004082Y011761D01*
X004074Y011758D01*
X003872Y011758D01*
X003785Y011670D01*
X003785Y011152D01*
X003860Y011076D01*
X003785Y011001D01*
X003785Y010483D01*
X003801Y010466D01*
X003801Y010309D01*
X003739Y010158D01*
X003739Y009994D01*
X003801Y009843D01*
X003917Y009726D01*
X004069Y009664D01*
X004233Y009664D01*
X004385Y009726D01*
X004501Y009843D01*
X004564Y009994D01*
X004564Y010158D01*
X004501Y010309D01*
X004501Y010466D01*
X004518Y010483D01*
X004518Y011001D01*
X004457Y011061D01*
X004845Y011061D01*
X004785Y011001D01*
X004785Y010483D01*
X004801Y010466D01*
X004801Y010309D01*
X004739Y010158D01*
X004739Y009994D01*
X004801Y009843D01*
X004917Y009726D01*
X005069Y009664D01*
X005233Y009664D01*
X005385Y009726D01*
X005501Y009843D01*
X005564Y009994D01*
X005564Y010158D01*
X005501Y010309D01*
X005501Y010466D01*
X005518Y010483D01*
X005518Y011001D01*
X005457Y011061D01*
X005756Y011061D01*
X005801Y011016D01*
X005801Y010309D01*
X005739Y010158D01*
X005739Y009994D01*
X005801Y009843D01*
X005917Y009726D01*
X006069Y009664D01*
X006233Y009664D01*
X006385Y009726D01*
X006501Y009843D01*
X006564Y009994D01*
X006564Y010158D01*
X006501Y010309D01*
X006501Y010898D01*
X006967Y010898D01*
X007055Y010986D01*
X007055Y011366D01*
X006967Y011454D01*
X007055Y011142D02*
X007510Y011142D01*
X007590Y011339D02*
X007618Y011339D01*
X007618Y011438D02*
X007590Y011438D01*
X007590Y011536D02*
X006271Y011536D01*
X006172Y011635D02*
X007247Y011635D01*
X007257Y011733D02*
X006037Y011733D01*
X005773Y011044D02*
X005475Y011044D01*
X005518Y010945D02*
X005801Y010945D01*
X005801Y010847D02*
X005518Y010847D01*
X005518Y010748D02*
X005801Y010748D01*
X005801Y010649D02*
X005518Y010649D01*
X005518Y010551D02*
X005801Y010551D01*
X005801Y010452D02*
X005501Y010452D01*
X005501Y010354D02*
X005801Y010354D01*
X005779Y010255D02*
X005523Y010255D01*
X005564Y010157D02*
X005739Y010157D01*
X005739Y010058D02*
X005564Y010058D01*
X005549Y009960D02*
X005753Y009960D01*
X005794Y009861D02*
X005509Y009861D01*
X005421Y009763D02*
X005881Y009763D01*
X006068Y009664D02*
X005234Y009664D01*
X005068Y009664D02*
X004234Y009664D01*
X004421Y009763D02*
X004881Y009763D01*
X004794Y009861D02*
X004509Y009861D01*
X004549Y009960D02*
X004753Y009960D01*
X004739Y010058D02*
X004564Y010058D01*
X004564Y010157D02*
X004739Y010157D01*
X004779Y010255D02*
X004524Y010255D01*
X004501Y010354D02*
X004801Y010354D01*
X004801Y010452D02*
X004501Y010452D01*
X004518Y010551D02*
X004785Y010551D01*
X004785Y010649D02*
X004518Y010649D01*
X004518Y010748D02*
X004785Y010748D01*
X004785Y010847D02*
X004518Y010847D01*
X004518Y010945D02*
X004785Y010945D01*
X004828Y011044D02*
X004475Y011044D01*
X003828Y011044D02*
X000351Y011044D01*
X000351Y011142D02*
X003794Y011142D01*
X003785Y011241D02*
X000351Y011241D01*
X000351Y011339D02*
X003785Y011339D01*
X003785Y011438D02*
X000351Y011438D01*
X000351Y011536D02*
X003785Y011536D01*
X003785Y011635D02*
X000351Y011635D01*
X000351Y011733D02*
X003848Y011733D01*
X003785Y010945D02*
X000351Y010945D01*
X000351Y010847D02*
X003785Y010847D01*
X003785Y010748D02*
X000351Y010748D01*
X000351Y010649D02*
X003785Y010649D01*
X003785Y010551D02*
X000351Y010551D01*
X000351Y010452D02*
X000981Y010452D01*
X000993Y010458D02*
X000935Y010429D01*
X000882Y010391D01*
X000837Y010345D01*
X000798Y010292D01*
X000769Y010235D01*
X000749Y010173D01*
X000739Y010114D01*
X001113Y010114D01*
X001113Y010039D01*
X000739Y010039D01*
X000749Y009980D01*
X000769Y009918D01*
X000798Y009860D01*
X000837Y009807D01*
X000882Y009762D01*
X000935Y009723D01*
X000993Y009694D01*
X001055Y009674D01*
X001114Y009664D01*
X001114Y010038D01*
X001189Y010038D01*
X001189Y009664D01*
X001248Y009674D01*
X001310Y009694D01*
X001367Y009723D01*
X001420Y009762D01*
X001466Y009807D01*
X001504Y009860D01*
X001533Y009918D01*
X001554Y009980D01*
X001563Y010039D01*
X001189Y010039D01*
X001189Y010114D01*
X001563Y010114D01*
X001554Y010173D01*
X001533Y010235D01*
X001504Y010292D01*
X001466Y010345D01*
X001420Y010391D01*
X001367Y010429D01*
X001310Y010458D01*
X001248Y010479D01*
X001189Y010488D01*
X001189Y010114D01*
X001114Y010114D01*
X001114Y010488D01*
X001055Y010479D01*
X000993Y010458D01*
X001114Y010452D02*
X001189Y010452D01*
X001189Y010354D02*
X001114Y010354D01*
X001114Y010255D02*
X001189Y010255D01*
X001189Y010157D02*
X001114Y010157D01*
X001113Y010058D02*
X000351Y010058D01*
X000351Y009960D02*
X000755Y009960D01*
X000798Y009861D02*
X000351Y009861D01*
X000351Y009763D02*
X000881Y009763D01*
X001114Y009763D02*
X001189Y009763D01*
X001189Y009861D02*
X001114Y009861D01*
X001114Y009960D02*
X001189Y009960D01*
X001189Y010058D02*
X001739Y010058D01*
X001739Y009994D02*
X001801Y009843D01*
X001917Y009726D01*
X002069Y009664D01*
X002233Y009664D01*
X002385Y009726D01*
X002501Y009843D01*
X002564Y009994D01*
X002564Y010158D01*
X002501Y010310D01*
X002385Y010426D01*
X002233Y010489D01*
X002069Y010489D01*
X001917Y010426D01*
X001801Y010310D01*
X001739Y010158D01*
X001739Y009994D01*
X001753Y009960D02*
X001547Y009960D01*
X001505Y009861D02*
X001794Y009861D01*
X001881Y009763D02*
X001421Y009763D01*
X001556Y010157D02*
X001739Y010157D01*
X001779Y010255D02*
X001523Y010255D01*
X001457Y010354D02*
X001845Y010354D01*
X001981Y010452D02*
X001321Y010452D01*
X000845Y010354D02*
X000351Y010354D01*
X000351Y010255D02*
X000779Y010255D01*
X000746Y010157D02*
X000351Y010157D01*
X000351Y009664D02*
X002068Y009664D01*
X002234Y009664D02*
X003068Y009664D01*
X003069Y009664D02*
X003233Y009664D01*
X003385Y009726D01*
X003501Y009843D01*
X003564Y009994D01*
X003564Y010158D01*
X003501Y010310D01*
X003385Y010426D01*
X003233Y010489D01*
X003069Y010489D01*
X002917Y010426D01*
X002801Y010310D01*
X002739Y010158D01*
X002739Y009994D01*
X002801Y009843D01*
X002917Y009726D01*
X003069Y009664D01*
X003234Y009664D02*
X004068Y009664D01*
X003881Y009763D02*
X003421Y009763D01*
X003509Y009861D02*
X003794Y009861D01*
X003753Y009960D02*
X003549Y009960D01*
X003564Y010058D02*
X003739Y010058D01*
X003739Y010157D02*
X003564Y010157D01*
X003524Y010255D02*
X003779Y010255D01*
X003801Y010354D02*
X003457Y010354D01*
X003321Y010452D02*
X003801Y010452D01*
X002981Y010452D02*
X002321Y010452D01*
X002457Y010354D02*
X002845Y010354D01*
X002779Y010255D02*
X002524Y010255D01*
X002564Y010157D02*
X002739Y010157D01*
X002739Y010058D02*
X002564Y010058D01*
X002549Y009960D02*
X002753Y009960D01*
X002794Y009861D02*
X002509Y009861D01*
X002421Y009763D02*
X002881Y009763D01*
X004986Y007595D02*
X000351Y007595D01*
X000351Y007693D02*
X005058Y007693D01*
X004961Y007496D02*
X000351Y007496D01*
X000351Y007398D02*
X004970Y007398D01*
X005018Y007299D02*
X000351Y007299D01*
X000351Y007200D02*
X005159Y007200D01*
X005268Y007102D02*
X000351Y007102D01*
X000351Y007003D02*
X002383Y007003D01*
X002284Y006905D02*
X000351Y006905D01*
X000351Y006806D02*
X002186Y006806D01*
X002142Y006708D02*
X000351Y006708D01*
X000351Y006609D02*
X002142Y006609D01*
X002142Y006511D02*
X000351Y006511D01*
X000351Y006412D02*
X002142Y006412D01*
X002142Y006314D02*
X000351Y006314D01*
X000351Y006215D02*
X002142Y006215D01*
X002142Y006116D02*
X000351Y006116D01*
X000351Y006018D02*
X002142Y006018D01*
X002142Y005919D02*
X000351Y005919D01*
X000351Y005821D02*
X002142Y005821D01*
X002142Y005722D02*
X000351Y005722D01*
X000351Y005624D02*
X002142Y005624D01*
X002142Y005525D02*
X000351Y005525D01*
X000351Y005427D02*
X002142Y005427D01*
X002142Y005328D02*
X000351Y005328D01*
X000351Y005230D02*
X002142Y005230D01*
X002142Y005131D02*
X000351Y005131D01*
X000351Y005033D02*
X002142Y005033D01*
X002142Y004934D02*
X000351Y004934D01*
X000351Y004835D02*
X002142Y004835D01*
X002142Y004737D02*
X000351Y004737D01*
X000351Y004638D02*
X002142Y004638D01*
X002142Y004540D02*
X000351Y004540D01*
X000351Y004441D02*
X002142Y004441D01*
X002142Y004343D02*
X000351Y004343D01*
X000351Y004244D02*
X002142Y004244D01*
X002142Y004146D02*
X000351Y004146D01*
X000351Y004047D02*
X002142Y004047D01*
X002142Y003949D02*
X000351Y003949D01*
X000351Y003850D02*
X002142Y003850D01*
X002142Y003751D02*
X000351Y003751D01*
X000351Y003653D02*
X002142Y003653D01*
X002142Y003554D02*
X000351Y003554D01*
X000351Y003456D02*
X002176Y003456D01*
X003051Y003776D02*
X003151Y003776D01*
X003651Y003357D02*
X000351Y003357D01*
X000351Y003259D02*
X003651Y003259D01*
X003651Y003160D02*
X000351Y003160D01*
X000351Y003062D02*
X003651Y003062D01*
X003651Y002963D02*
X000351Y002963D01*
X000351Y002865D02*
X003651Y002865D01*
X003651Y002766D02*
X000351Y002766D01*
X000351Y002667D02*
X003651Y002667D01*
X005151Y002569D02*
X000351Y002569D01*
X000351Y002470D02*
X005151Y002470D01*
X005151Y002372D02*
X000351Y002372D01*
X000351Y007792D02*
X009951Y007792D01*
X009951Y007890D02*
X000351Y007890D01*
X000351Y007989D02*
X009951Y007989D01*
X009951Y008087D02*
X000351Y008087D01*
X000351Y008186D02*
X009951Y008186D01*
X009951Y008284D02*
X000351Y008284D01*
X000351Y008383D02*
X009951Y008383D01*
X009951Y008482D02*
X000351Y008482D01*
X000351Y008580D02*
X009951Y008580D01*
X009951Y008679D02*
X000351Y008679D01*
X000351Y008777D02*
X009951Y008777D01*
X009951Y008876D02*
X000351Y008876D01*
X000351Y008974D02*
X009951Y008974D01*
X009951Y009073D02*
X000351Y009073D01*
X000351Y009171D02*
X009951Y009171D01*
X009951Y009270D02*
X000351Y009270D01*
X000351Y009368D02*
X009951Y009368D01*
X009951Y009467D02*
X009319Y009467D01*
X009435Y009566D02*
X009951Y009566D01*
X009951Y009664D02*
X009484Y009664D01*
X009501Y009763D02*
X009951Y009763D01*
X009951Y009861D02*
X009501Y009861D01*
X009501Y009960D02*
X009951Y009960D01*
X009951Y010058D02*
X009501Y010058D01*
X009501Y010157D02*
X009951Y010157D01*
X009951Y010255D02*
X009501Y010255D01*
X009501Y010354D02*
X009951Y010354D01*
X009951Y010452D02*
X009501Y010452D01*
X009501Y010551D02*
X009951Y010551D01*
X009951Y010649D02*
X009501Y010649D01*
X009501Y010748D02*
X009951Y010748D01*
X009951Y010847D02*
X009501Y010847D01*
X009498Y010945D02*
X009951Y010945D01*
X009951Y011044D02*
X009498Y011044D01*
X009476Y011142D02*
X009951Y011142D01*
X009951Y011241D02*
X009489Y011241D01*
X009498Y011339D02*
X009951Y011339D01*
X009951Y011438D02*
X009498Y011438D01*
X009498Y011635D02*
X009951Y011635D01*
X009951Y011733D02*
X009498Y011733D01*
X009456Y011832D02*
X009951Y011832D01*
X009951Y011536D02*
X009200Y011536D01*
X009102Y011536D02*
X008400Y011536D01*
X008302Y011536D02*
X007618Y011536D01*
X007618Y011635D02*
X007590Y011635D01*
X007590Y011733D02*
X007618Y011733D01*
X007299Y011044D02*
X007055Y011044D01*
X007014Y010945D02*
X007247Y010945D01*
X007247Y010847D02*
X006501Y010847D01*
X006501Y010748D02*
X007247Y010748D01*
X007247Y010649D02*
X006501Y010649D01*
X006501Y010551D02*
X007308Y010551D01*
X007233Y010489D02*
X007069Y010489D01*
X006917Y010426D01*
X006801Y010310D01*
X006739Y010158D01*
X006739Y009994D01*
X006801Y009843D01*
X006917Y009726D01*
X007069Y009664D01*
X007233Y009664D01*
X007385Y009726D01*
X007501Y009843D01*
X007564Y009994D01*
X007564Y010158D01*
X007501Y010310D01*
X007385Y010426D01*
X007233Y010489D01*
X007321Y010452D02*
X007534Y010452D01*
X007601Y010354D02*
X007457Y010354D01*
X007524Y010255D02*
X007601Y010255D01*
X007601Y010157D02*
X007564Y010157D01*
X007564Y010058D02*
X007601Y010058D01*
X007601Y009960D02*
X007549Y009960D01*
X007509Y009861D02*
X007601Y009861D01*
X007601Y009763D02*
X007421Y009763D01*
X007234Y009664D02*
X007619Y009664D01*
X007667Y009566D02*
X000351Y009566D01*
X000351Y009467D02*
X007783Y009467D01*
X008119Y009467D02*
X008983Y009467D01*
X008867Y009566D02*
X008235Y009566D01*
X008284Y009664D02*
X008819Y009664D01*
X008801Y009763D02*
X008301Y009763D01*
X008301Y009861D02*
X008801Y009861D01*
X008801Y009960D02*
X008301Y009960D01*
X008301Y010058D02*
X008801Y010058D01*
X008801Y010157D02*
X008301Y010157D01*
X008301Y010255D02*
X008801Y010255D01*
X008801Y010354D02*
X008301Y010354D01*
X008301Y010452D02*
X008801Y010452D01*
X008801Y010551D02*
X008686Y010551D01*
X008698Y010649D02*
X008801Y010649D01*
X008801Y010748D02*
X008698Y010748D01*
X008701Y010847D02*
X008801Y010847D01*
X008804Y010945D02*
X008698Y010945D01*
X008698Y011044D02*
X008804Y011044D01*
X008826Y011142D02*
X008676Y011142D01*
X008689Y011241D02*
X008813Y011241D01*
X008804Y011339D02*
X008698Y011339D01*
X008698Y011438D02*
X008804Y011438D01*
X008804Y011635D02*
X008698Y011635D01*
X008698Y011733D02*
X008804Y011733D01*
X008847Y011832D02*
X008656Y011832D01*
X006981Y010452D02*
X006501Y010452D01*
X006501Y010354D02*
X006845Y010354D01*
X006779Y010255D02*
X006523Y010255D01*
X006564Y010157D02*
X006739Y010157D01*
X006739Y010058D02*
X006564Y010058D01*
X006549Y009960D02*
X006753Y009960D01*
X006794Y009861D02*
X006509Y009861D01*
X006421Y009763D02*
X006881Y009763D01*
X007068Y009664D02*
X006234Y009664D01*
X005444Y007693D02*
X009951Y007693D01*
X009951Y007595D02*
X006728Y007595D01*
X006827Y007496D02*
X009951Y007496D01*
X009951Y007398D02*
X006925Y007398D01*
X007024Y007299D02*
X009951Y007299D01*
X009951Y007200D02*
X007537Y007200D01*
X007613Y007102D02*
X009951Y007102D01*
X009951Y007003D02*
X007641Y007003D01*
X007635Y006905D02*
X009951Y006905D01*
X009951Y006806D02*
X007591Y006806D01*
X007560Y006708D02*
X009951Y006708D01*
X009951Y006609D02*
X007560Y006609D01*
X007560Y006511D02*
X009951Y006511D01*
X009951Y006412D02*
X007560Y006412D01*
X007560Y006314D02*
X009951Y006314D01*
X009951Y006215D02*
X007560Y006215D01*
X007560Y006116D02*
X009951Y006116D01*
X009951Y006018D02*
X007560Y006018D01*
X007560Y005919D02*
X009951Y005919D01*
X009951Y005821D02*
X007560Y005821D01*
X007605Y005722D02*
X009951Y005722D01*
X009951Y005624D02*
X007641Y005624D01*
X007641Y005525D02*
X009951Y005525D01*
X009951Y005427D02*
X007603Y005427D01*
X007510Y005328D02*
X009951Y005328D01*
X009951Y005230D02*
X007341Y005230D01*
X007305Y005131D02*
X009951Y005131D01*
X009951Y005033D02*
X007218Y005033D01*
X007041Y004934D02*
X009951Y004934D01*
X009951Y004835D02*
X007007Y004835D01*
X006922Y004737D02*
X009951Y004737D01*
X009951Y004638D02*
X006651Y004638D01*
X006651Y004540D02*
X009951Y004540D01*
X009951Y004441D02*
X006651Y004441D01*
X006651Y004343D02*
X009951Y004343D01*
X009951Y004244D02*
X006651Y004244D01*
X006651Y004146D02*
X009951Y004146D01*
X009951Y004047D02*
X006651Y004047D01*
X006651Y003949D02*
X009951Y003949D01*
X009951Y003850D02*
X006651Y003850D01*
X006651Y003751D02*
X009951Y003751D01*
X009951Y003653D02*
X006651Y003653D01*
X006651Y003554D02*
X009951Y003554D01*
X009951Y003456D02*
X006651Y003456D01*
X006651Y003357D02*
X009951Y003357D01*
X009951Y003259D02*
X006651Y003259D01*
X006651Y003160D02*
X009951Y003160D01*
X009951Y003062D02*
X006651Y003062D01*
X006651Y002963D02*
X009951Y002963D01*
X009951Y002865D02*
X006651Y002865D01*
X006651Y002766D02*
X009951Y002766D01*
X009951Y002667D02*
X006651Y002667D01*
X005251Y002569D02*
X009951Y002569D01*
X009951Y002470D02*
X005251Y002470D01*
X005251Y002372D02*
X009951Y002372D01*
X007165Y007200D02*
X007123Y007200D01*
X005751Y006176D02*
X005751Y006076D01*
D16*
X007604Y011550D02*
X008312Y011550D01*
D17*
X007951Y010376D03*
X007951Y010076D03*
X007951Y009776D03*
X009151Y009776D03*
X009151Y010076D03*
X009151Y010376D03*
X005751Y006676D03*
X005751Y006376D03*
X005751Y006076D03*
X005751Y005776D03*
X003451Y003776D03*
X003151Y003776D03*
X002851Y003776D03*
X002551Y003776D03*
D18*
X004151Y010076D02*
X004151Y010742D01*
X004151Y011411D02*
X005151Y011411D01*
X005901Y011411D01*
X006151Y011161D01*
X006151Y010076D01*
X005151Y010076D02*
X005151Y010742D01*
X007604Y010802D02*
X007951Y010802D01*
X007951Y010842D01*
X008351Y010842D01*
X007951Y010802D02*
X007951Y010376D01*
X007951Y009776D01*
X009151Y009776D02*
X009151Y010376D01*
X009151Y010842D01*
D19*
X005751Y006076D02*
X005651Y006076D01*
X003051Y003776D02*
X002651Y003576D01*
D20*
X002351Y003576D02*
X002351Y006676D01*
X002551Y006876D01*
X005951Y006876D01*
X005951Y005576D01*
X003651Y005576D01*
X002351Y005576D01*
X002351Y005692D02*
X005951Y005692D01*
X005951Y005809D02*
X002351Y005809D01*
X002351Y005926D02*
X005951Y005926D01*
X005951Y006042D02*
X002351Y006042D01*
X002351Y006159D02*
X005951Y006159D01*
X005951Y006276D02*
X002351Y006276D01*
X002351Y006392D02*
X005951Y006392D01*
X005951Y006509D02*
X002351Y006509D01*
X002351Y006626D02*
X005951Y006626D01*
X005951Y006742D02*
X002417Y006742D01*
X002534Y006859D02*
X005951Y006859D01*
X005551Y007176D02*
X006451Y007176D01*
X006751Y006876D01*
X006751Y004976D01*
X007051Y005276D02*
X007051Y006976D01*
X006551Y007476D01*
X005251Y007476D01*
X003651Y005576D02*
X003651Y003576D01*
X002351Y003576D01*
X002351Y003593D02*
X003651Y003593D01*
X003651Y003709D02*
X002351Y003709D01*
X002351Y003826D02*
X003651Y003826D01*
X003651Y003943D02*
X002351Y003943D01*
X002351Y004059D02*
X003651Y004059D01*
X003651Y004176D02*
X002351Y004176D01*
X002351Y004293D02*
X003651Y004293D01*
X003651Y004409D02*
X002351Y004409D01*
X002351Y004526D02*
X003651Y004526D01*
X003651Y004643D02*
X002351Y004643D01*
X002351Y004759D02*
X003651Y004759D01*
X003651Y004876D02*
X002351Y004876D01*
X002351Y004993D02*
X003651Y004993D01*
X003651Y005109D02*
X002351Y005109D01*
X002351Y005226D02*
X003651Y005226D01*
X003651Y005343D02*
X002351Y005343D01*
X002351Y005459D02*
X003651Y005459D01*
X007351Y005576D02*
X007351Y006976D01*
D21*
X006698Y011176D02*
X006167Y011176D01*
X006151Y011161D01*
M02*
