%
M48
M72
T01C0.0140
T02C0.0350
%
T01
X1751Y2476
X851Y2776
X551Y4076
X551Y5076
X551Y6076
X551Y7076
X551Y8076
X551Y9076
X1651Y9076
X2651Y9076
X3651Y9076
X3151Y7276
X4151Y7276
X5251Y7476
X5551Y7176
X5751Y6676
X5751Y6376
X5751Y6076
X5751Y5776
X6751Y4976
X7051Y5276
X7351Y5576
X7751Y4876
X7001Y4126
X5051Y2476
X3751Y2476
X2751Y2476
X2851Y3776
X2551Y3776
X3151Y3776
X3451Y3776
X1951Y4076
X1951Y5076
X1951Y6076
X2151Y7076
X1851Y11676
X651Y11676
X3051Y11676
X7351Y6976
X7951Y9776
X7951Y10076
X7951Y10376
X9151Y10376
X9151Y10076
X9151Y9776
X9751Y11676
T02
X7151Y10076
X6151Y10076
X5151Y10076
X4151Y10076
X3151Y10076
X2151Y10076
X1151Y10076
M30
