G75*
G70*
%OFA0B0*%
%FSLAX24Y24*%
%IPPOS*%
%LPD*%
%AMOC8*
5,1,8,0,0,1.08239X$1,22.5*
%
%ADD10R,0.0513X0.0474*%
%ADD11C,0.0605*%
%ADD12R,0.0474X0.0513*%
%ADD13R,0.0493X0.0336*%
%ADD14C,0.0360*%
%ADD15R,0.0360X0.0360*%
D10*
X004151Y010742D03*
X004151Y011411D03*
X005151Y011411D03*
X005151Y010742D03*
D11*
X005151Y010076D03*
X004151Y010076D03*
X003151Y010076D03*
X002151Y010076D03*
X001151Y010076D03*
X006151Y010076D03*
X007151Y010076D03*
D12*
X008351Y010842D03*
X008351Y011511D03*
X009151Y011511D03*
X009151Y010842D03*
D13*
X007604Y010802D03*
X007604Y011550D03*
X006698Y011176D03*
D14*
X001751Y002476D03*
X000851Y002776D03*
X000551Y004076D03*
X000551Y005076D03*
X000551Y006076D03*
X000551Y007076D03*
X000551Y008076D03*
X000551Y009076D03*
X001651Y009076D03*
X002651Y009076D03*
X003651Y009076D03*
X003151Y007276D03*
X004151Y007276D03*
X005251Y007476D03*
X005551Y007176D03*
X007051Y005276D03*
X006751Y004976D03*
X007351Y005576D03*
X007751Y004876D03*
X007001Y004126D03*
X005051Y002476D03*
X003751Y002476D03*
X002751Y002476D03*
X001951Y004076D03*
X001951Y005076D03*
X001951Y006076D03*
X002151Y007076D03*
X001851Y011676D03*
X000651Y011676D03*
X003051Y011676D03*
X007351Y006976D03*
X009751Y011676D03*
D15*
X009151Y010376D03*
X009151Y010076D03*
X009151Y009776D03*
X007951Y009776D03*
X007951Y010076D03*
X007951Y010376D03*
X005751Y006676D03*
X005751Y006376D03*
X005751Y006076D03*
X005751Y005776D03*
X003451Y003776D03*
X003151Y003776D03*
X002851Y003776D03*
X002551Y003776D03*
M02*
