G75*
G70*
%OFA0B0*%
%FSLAX24Y24*%
%IPPOS*%
%LPD*%
%AMOC8*
5,1,8,0,0,1.08239X$1,22.5*
%
%ADD10R,0.0433X0.0394*%
%ADD11C,0.0525*%
%ADD12R,0.0512X0.0591*%
%ADD13R,0.0157X0.0118*%
%ADD14R,0.0118X0.0157*%
%ADD15R,0.0394X0.0433*%
%ADD16C,0.0280*%
%ADD17C,0.0100*%
%ADD18C,0.0118*%
%ADD19C,0.0200*%
%ADD20R,0.0280X0.0280*%
%ADD21C,0.0400*%
D10*
X007951Y008642D03*
X007951Y009311D03*
X008817Y011176D03*
X009486Y011176D03*
X005886Y011276D03*
X005217Y011276D03*
D11*
X005151Y010076D03*
X004151Y010076D03*
X003151Y010076D03*
X002151Y010076D03*
X001151Y010076D03*
X006151Y010076D03*
X007151Y010076D03*
D12*
X007325Y011276D03*
X006577Y011276D03*
D13*
X006017Y004726D03*
X006017Y004509D03*
X006017Y004293D03*
X006017Y004076D03*
X006017Y003860D03*
X006017Y003643D03*
X006017Y003427D03*
X004285Y003427D03*
X004285Y003643D03*
X004285Y003860D03*
X004285Y004076D03*
X004285Y004293D03*
X004285Y004509D03*
X004285Y004726D03*
D14*
X004502Y004942D03*
X004718Y004942D03*
X004935Y004942D03*
X005151Y004942D03*
X005368Y004942D03*
X005584Y004942D03*
X005801Y004942D03*
X005801Y003210D03*
X005584Y003210D03*
X005368Y003210D03*
X005151Y003210D03*
X004935Y003210D03*
X004718Y003210D03*
X004502Y003210D03*
D15*
X003486Y003276D03*
X002817Y003276D03*
D16*
X002751Y002476D03*
X001751Y002476D03*
X000851Y002776D03*
X000551Y004076D03*
X000551Y005076D03*
X000551Y006076D03*
X000551Y007076D03*
X000551Y008076D03*
X000551Y009076D03*
X001651Y009076D03*
X002651Y009076D03*
X003651Y009076D03*
X003151Y007276D03*
X004151Y007276D03*
X005251Y007476D03*
X005551Y007176D03*
X007051Y005276D03*
X006751Y004976D03*
X007351Y005576D03*
X007751Y004876D03*
X007001Y004126D03*
X005051Y002476D03*
X003751Y002476D03*
X001951Y004076D03*
X001951Y005076D03*
X001951Y006076D03*
X002151Y007076D03*
X001851Y011676D03*
X000651Y011676D03*
X003051Y011676D03*
X007351Y006976D03*
X009751Y011676D03*
D17*
X000351Y011876D02*
X000351Y002276D01*
X005051Y002276D01*
X005051Y002576D01*
X003651Y002576D01*
X003651Y002910D01*
X003251Y002910D01*
X003251Y002793D01*
X003134Y002676D01*
X002434Y002676D01*
X002268Y002676D01*
X002151Y002793D01*
X002151Y003893D01*
X002151Y004059D01*
X002268Y004176D01*
X003568Y004176D01*
X003651Y004176D01*
X003651Y005576D01*
X004509Y005576D01*
X004509Y008967D01*
X004238Y008967D01*
X004065Y008967D01*
X003865Y009167D01*
X003338Y009167D01*
X003165Y009167D01*
X002965Y009367D01*
X002438Y009367D01*
X002265Y009367D01*
X002065Y009567D01*
X001942Y009690D01*
X001942Y009716D01*
X001917Y009726D01*
X001801Y009843D01*
X001739Y009994D01*
X001739Y010158D01*
X001801Y010310D01*
X001917Y010426D01*
X002069Y010489D01*
X002233Y010489D01*
X002385Y010426D01*
X002501Y010310D01*
X002564Y010158D01*
X002564Y009994D01*
X002501Y009843D01*
X002444Y009785D01*
X002859Y009785D01*
X002801Y009843D01*
X002739Y009994D01*
X002739Y010158D01*
X002801Y010310D01*
X002917Y010426D01*
X003069Y010489D01*
X003233Y010489D01*
X003385Y010426D01*
X003501Y010310D01*
X003564Y010158D01*
X003564Y009994D01*
X003501Y009843D01*
X003444Y009785D01*
X003859Y009785D01*
X003801Y009843D01*
X003739Y009994D01*
X003739Y010158D01*
X003801Y010310D01*
X003917Y010426D01*
X004069Y010489D01*
X004233Y010489D01*
X004385Y010426D01*
X004501Y010310D01*
X004564Y010158D01*
X004564Y009994D01*
X004501Y009843D01*
X004444Y009785D01*
X004859Y009785D01*
X004801Y009843D01*
X004739Y009994D01*
X004739Y010158D01*
X004801Y010310D01*
X004917Y010426D01*
X005069Y010489D01*
X005233Y010489D01*
X005301Y010461D01*
X005301Y010929D01*
X005265Y010929D01*
X005265Y011228D01*
X005168Y011228D01*
X004850Y011228D01*
X004850Y011060D01*
X004860Y011021D01*
X004880Y010987D01*
X004908Y010959D01*
X004942Y010940D01*
X004980Y010929D01*
X005168Y010929D01*
X005168Y011228D01*
X005168Y011325D01*
X005168Y011623D01*
X004980Y011623D01*
X004942Y011613D01*
X004908Y011593D01*
X004880Y011565D01*
X004860Y011531D01*
X004850Y011493D01*
X004850Y011325D01*
X005168Y011325D01*
X005265Y011325D01*
X005265Y011623D01*
X005453Y011623D01*
X005478Y011616D01*
X005501Y011626D01*
X006171Y011626D01*
X006171Y011634D01*
X006259Y011721D01*
X006895Y011721D01*
X006951Y011665D01*
X006977Y011691D01*
X007011Y011711D01*
X007050Y011721D01*
X007275Y011721D01*
X007275Y011326D01*
X007375Y011326D01*
X007731Y011326D01*
X007731Y011591D01*
X007721Y011629D01*
X007701Y011664D01*
X007673Y011691D01*
X007639Y011711D01*
X007601Y011721D01*
X007375Y011721D01*
X007375Y011326D01*
X007375Y011226D01*
X007375Y010831D01*
X007601Y010831D01*
X007639Y010841D01*
X007673Y010861D01*
X007701Y010889D01*
X007721Y010923D01*
X007731Y010961D01*
X007731Y011226D01*
X007375Y011226D01*
X007275Y011226D01*
X007275Y010831D01*
X007201Y010831D01*
X007201Y010626D01*
X007201Y010489D01*
X007233Y010489D01*
X007385Y010426D01*
X007501Y010310D01*
X007564Y010158D01*
X007564Y009994D01*
X007501Y009843D01*
X007385Y009726D01*
X007360Y009716D01*
X007360Y009663D01*
X007560Y009463D01*
X007560Y009290D01*
X007560Y007177D01*
X007597Y007140D01*
X007601Y007130D01*
X007601Y008366D01*
X007585Y008383D01*
X007560Y008383D01*
X007585Y008383D02*
X007585Y008901D01*
X007660Y008976D01*
X007585Y009052D01*
X007585Y009570D01*
X007601Y009586D01*
X007601Y009846D01*
X007601Y010146D01*
X007601Y010446D01*
X007654Y010574D01*
X007753Y010673D01*
X007882Y010726D01*
X008021Y010726D01*
X008149Y010673D01*
X008201Y010621D01*
X008201Y010980D01*
X008254Y011109D01*
X008353Y011208D01*
X008450Y011305D01*
X008450Y011435D01*
X008538Y011523D01*
X008739Y011523D01*
X008747Y011526D01*
X008886Y011526D01*
X008894Y011523D01*
X009095Y011523D01*
X009151Y011467D01*
X009207Y011523D01*
X009409Y011523D01*
X009416Y011526D01*
X009555Y011526D01*
X009563Y011523D01*
X009764Y011523D01*
X009852Y011435D01*
X009852Y011305D01*
X009949Y011208D01*
X009949Y011208D01*
X009951Y011206D01*
X009951Y011876D01*
X000351Y011876D01*
X000351Y011832D02*
X009951Y011832D01*
X009951Y011733D02*
X000351Y011733D01*
X000351Y011635D02*
X006173Y011635D01*
X005265Y011536D02*
X005168Y011536D01*
X005168Y011438D02*
X005265Y011438D01*
X005265Y011339D02*
X005168Y011339D01*
X005168Y011241D02*
X000351Y011241D01*
X000351Y011339D02*
X004850Y011339D01*
X004850Y011438D02*
X000351Y011438D01*
X000351Y011536D02*
X004863Y011536D01*
X004850Y011142D02*
X000351Y011142D01*
X000351Y011044D02*
X004854Y011044D01*
X004933Y010945D02*
X000351Y010945D01*
X000351Y010847D02*
X005301Y010847D01*
X005301Y010748D02*
X000351Y010748D01*
X000351Y010649D02*
X005301Y010649D01*
X005301Y010551D02*
X000351Y010551D01*
X000351Y010452D02*
X000981Y010452D01*
X000993Y010458D02*
X000935Y010429D01*
X000882Y010391D01*
X000837Y010345D01*
X000798Y010292D01*
X000769Y010235D01*
X000749Y010173D01*
X000739Y010114D01*
X001113Y010114D01*
X001113Y010039D01*
X000739Y010039D01*
X000749Y009980D01*
X000769Y009918D01*
X000798Y009860D01*
X000837Y009807D01*
X000882Y009762D01*
X000935Y009723D01*
X000993Y009694D01*
X001055Y009674D01*
X001114Y009664D01*
X001114Y010038D01*
X001189Y010038D01*
X001189Y009664D01*
X001248Y009674D01*
X001310Y009694D01*
X001367Y009723D01*
X001420Y009762D01*
X001466Y009807D01*
X001504Y009860D01*
X001533Y009918D01*
X001554Y009980D01*
X001563Y010039D01*
X001189Y010039D01*
X001189Y010114D01*
X001563Y010114D01*
X001554Y010173D01*
X001533Y010235D01*
X001504Y010292D01*
X001466Y010345D01*
X001420Y010391D01*
X001367Y010429D01*
X001310Y010458D01*
X001248Y010479D01*
X001189Y010488D01*
X001189Y010114D01*
X001114Y010114D01*
X001114Y010488D01*
X001055Y010479D01*
X000993Y010458D01*
X001114Y010452D02*
X001189Y010452D01*
X001189Y010354D02*
X001114Y010354D01*
X001114Y010255D02*
X001189Y010255D01*
X001189Y010157D02*
X001114Y010157D01*
X001113Y010058D02*
X000351Y010058D01*
X000351Y009960D02*
X000755Y009960D01*
X000798Y009861D02*
X000351Y009861D01*
X000351Y009763D02*
X000881Y009763D01*
X001114Y009763D02*
X001189Y009763D01*
X001189Y009861D02*
X001114Y009861D01*
X001114Y009960D02*
X001189Y009960D01*
X001189Y010058D02*
X001739Y010058D01*
X001739Y010157D02*
X001556Y010157D01*
X001523Y010255D02*
X001779Y010255D01*
X001845Y010354D02*
X001457Y010354D01*
X001321Y010452D02*
X001981Y010452D01*
X002321Y010452D02*
X002981Y010452D01*
X002845Y010354D02*
X002457Y010354D01*
X002524Y010255D02*
X002779Y010255D01*
X002739Y010157D02*
X002564Y010157D01*
X002564Y010058D02*
X002739Y010058D01*
X002753Y009960D02*
X002549Y009960D01*
X002509Y009861D02*
X002794Y009861D01*
X003062Y009270D02*
X000351Y009270D01*
X000351Y009368D02*
X002263Y009368D01*
X002165Y009467D02*
X000351Y009467D01*
X000351Y009566D02*
X002066Y009566D01*
X001968Y009664D02*
X000351Y009664D01*
X000351Y009171D02*
X003160Y009171D01*
X003509Y009861D02*
X003794Y009861D01*
X003753Y009960D02*
X003549Y009960D01*
X003564Y010058D02*
X003739Y010058D01*
X003739Y010157D02*
X003564Y010157D01*
X003524Y010255D02*
X003779Y010255D01*
X003845Y010354D02*
X003457Y010354D01*
X003321Y010452D02*
X003981Y010452D01*
X004321Y010452D02*
X004981Y010452D01*
X004845Y010354D02*
X004457Y010354D01*
X004524Y010255D02*
X004779Y010255D01*
X004739Y010157D02*
X004564Y010157D01*
X004564Y010058D02*
X004739Y010058D01*
X004753Y009960D02*
X004549Y009960D01*
X004509Y009861D02*
X004794Y009861D01*
X004057Y008974D02*
X000351Y008974D01*
X000351Y008876D02*
X004509Y008876D01*
X004509Y008777D02*
X000351Y008777D01*
X000351Y008679D02*
X004509Y008679D01*
X004509Y008580D02*
X000351Y008580D01*
X000351Y008482D02*
X004509Y008482D01*
X004509Y008383D02*
X000351Y008383D01*
X000351Y008284D02*
X004509Y008284D01*
X004509Y008186D02*
X000351Y008186D01*
X000351Y008087D02*
X004509Y008087D01*
X004509Y007989D02*
X000351Y007989D01*
X000351Y007890D02*
X004509Y007890D01*
X004509Y007792D02*
X000351Y007792D01*
X000351Y007693D02*
X004509Y007693D01*
X004509Y007595D02*
X000351Y007595D01*
X000351Y007496D02*
X004509Y007496D01*
X004509Y007398D02*
X000351Y007398D01*
X000351Y007299D02*
X004509Y007299D01*
X004509Y007200D02*
X000351Y007200D01*
X000351Y007102D02*
X004509Y007102D01*
X004509Y007003D02*
X000351Y007003D01*
X000351Y006905D02*
X004509Y006905D01*
X004509Y006806D02*
X000351Y006806D01*
X000351Y006708D02*
X004509Y006708D01*
X004509Y006609D02*
X000351Y006609D01*
X000351Y006511D02*
X004509Y006511D01*
X004509Y006412D02*
X000351Y006412D01*
X000351Y006314D02*
X004509Y006314D01*
X004509Y006215D02*
X000351Y006215D01*
X000351Y006116D02*
X004509Y006116D01*
X004509Y006018D02*
X000351Y006018D01*
X000351Y005919D02*
X004509Y005919D01*
X004509Y005821D02*
X000351Y005821D01*
X000351Y005722D02*
X004509Y005722D01*
X004509Y005624D02*
X000351Y005624D01*
X000351Y005525D02*
X003651Y005525D01*
X003651Y005427D02*
X000351Y005427D01*
X000351Y005328D02*
X003651Y005328D01*
X003651Y005230D02*
X000351Y005230D01*
X000351Y005131D02*
X003651Y005131D01*
X003651Y005033D02*
X000351Y005033D01*
X000351Y004934D02*
X003651Y004934D01*
X003651Y004835D02*
X000351Y004835D01*
X000351Y004737D02*
X003651Y004737D01*
X003651Y004638D02*
X000351Y004638D01*
X000351Y004540D02*
X003651Y004540D01*
X003651Y004441D02*
X000351Y004441D01*
X000351Y004343D02*
X003651Y004343D01*
X003651Y004244D02*
X000351Y004244D01*
X000351Y004146D02*
X002238Y004146D01*
X002151Y004047D02*
X000351Y004047D01*
X000351Y003949D02*
X002151Y003949D01*
X002151Y003850D02*
X000351Y003850D01*
X000351Y003751D02*
X002151Y003751D01*
X002151Y003653D02*
X000351Y003653D01*
X000351Y003554D02*
X002151Y003554D01*
X002151Y003456D02*
X000351Y003456D01*
X000351Y003357D02*
X002151Y003357D01*
X002151Y003259D02*
X000351Y003259D01*
X000351Y003160D02*
X002151Y003160D01*
X002151Y003062D02*
X000351Y003062D01*
X000351Y002963D02*
X002151Y002963D01*
X002151Y002865D02*
X000351Y002865D01*
X000351Y002766D02*
X002179Y002766D01*
X002351Y002876D02*
X002351Y003976D01*
X003651Y003976D01*
X003651Y003676D01*
X003051Y003676D01*
X003051Y003638D01*
X003033Y003643D01*
X002865Y003643D01*
X002865Y003325D01*
X002768Y003325D01*
X002768Y003643D01*
X002600Y003643D01*
X002562Y003632D01*
X002528Y003613D01*
X002500Y003585D01*
X002480Y003551D01*
X002470Y003512D01*
X002470Y003325D01*
X002768Y003325D01*
X002768Y003228D01*
X002470Y003228D01*
X002470Y003040D01*
X002480Y003002D01*
X002500Y002968D01*
X002528Y002940D01*
X002562Y002920D01*
X002600Y002910D01*
X002768Y002910D01*
X002768Y003228D01*
X002865Y003228D01*
X002865Y002910D01*
X003033Y002910D01*
X003051Y002915D01*
X003051Y002876D01*
X002351Y002876D01*
X002351Y002963D02*
X002504Y002963D01*
X002470Y003062D02*
X002351Y003062D01*
X002351Y003160D02*
X002470Y003160D01*
X002351Y003259D02*
X002768Y003259D01*
X002768Y003357D02*
X002865Y003357D01*
X002865Y003456D02*
X002768Y003456D01*
X002768Y003554D02*
X002865Y003554D01*
X003051Y003653D02*
X002351Y003653D01*
X002351Y003751D02*
X003651Y003751D01*
X003651Y003850D02*
X002351Y003850D01*
X002351Y003949D02*
X003651Y003949D01*
X003486Y003427D02*
X003486Y003276D01*
X003651Y002865D02*
X003251Y002865D01*
X003224Y002766D02*
X003651Y002766D01*
X003651Y002667D02*
X000351Y002667D01*
X000351Y002569D02*
X005051Y002569D01*
X005051Y002470D02*
X000351Y002470D01*
X000351Y002372D02*
X005051Y002372D01*
X005368Y002476D02*
X005751Y002476D01*
X005551Y002476D02*
X005468Y002560D01*
X006651Y003953D02*
X006651Y003981D01*
X006938Y004267D01*
X007038Y004267D01*
X007560Y004790D01*
X007560Y004963D01*
X007560Y005375D01*
X007597Y005412D01*
X007641Y005519D01*
X007641Y005634D01*
X007597Y005740D01*
X007515Y005822D01*
X007428Y005858D01*
X008149Y006579D01*
X008201Y006631D01*
X008201Y005121D01*
X007073Y003993D01*
X006748Y003993D01*
X006651Y003953D01*
X006718Y004047D02*
X007127Y004047D01*
X007226Y004146D02*
X006816Y004146D01*
X006915Y004244D02*
X007324Y004244D01*
X007423Y004343D02*
X007113Y004343D01*
X007212Y004441D02*
X007521Y004441D01*
X007620Y004540D02*
X007310Y004540D01*
X007409Y004638D02*
X007718Y004638D01*
X007817Y004737D02*
X007507Y004737D01*
X007560Y004835D02*
X007915Y004835D01*
X008014Y004934D02*
X007560Y004934D01*
X007560Y005033D02*
X008113Y005033D01*
X008201Y005131D02*
X007560Y005131D01*
X007560Y005230D02*
X008201Y005230D01*
X008201Y005328D02*
X007560Y005328D01*
X007603Y005427D02*
X008201Y005427D01*
X008201Y005525D02*
X007641Y005525D01*
X007641Y005624D02*
X008201Y005624D01*
X008201Y005722D02*
X007605Y005722D01*
X007517Y005821D02*
X008201Y005821D01*
X008201Y005919D02*
X007489Y005919D01*
X007588Y006018D02*
X008201Y006018D01*
X008201Y006116D02*
X007686Y006116D01*
X007785Y006215D02*
X008201Y006215D01*
X008201Y006314D02*
X007883Y006314D01*
X007982Y006412D02*
X008201Y006412D01*
X008201Y006511D02*
X008081Y006511D01*
X008149Y006579D02*
X008149Y006579D01*
X008179Y006609D02*
X008201Y006609D01*
X007601Y007200D02*
X007560Y007200D01*
X007560Y007299D02*
X007601Y007299D01*
X007601Y007398D02*
X007560Y007398D01*
X007560Y007496D02*
X007601Y007496D01*
X007601Y007595D02*
X007560Y007595D01*
X007560Y007693D02*
X007601Y007693D01*
X007601Y007792D02*
X007560Y007792D01*
X007560Y007890D02*
X007601Y007890D01*
X007601Y007989D02*
X007560Y007989D01*
X007560Y008087D02*
X007601Y008087D01*
X007601Y008186D02*
X007560Y008186D01*
X007560Y008284D02*
X007601Y008284D01*
X007585Y008482D02*
X007560Y008482D01*
X007560Y008580D02*
X007585Y008580D01*
X007585Y008679D02*
X007560Y008679D01*
X007560Y008777D02*
X007585Y008777D01*
X007585Y008876D02*
X007560Y008876D01*
X007560Y008974D02*
X007658Y008974D01*
X007585Y009073D02*
X007560Y009073D01*
X007560Y009171D02*
X007585Y009171D01*
X007585Y009270D02*
X007560Y009270D01*
X007560Y009368D02*
X007585Y009368D01*
X007585Y009467D02*
X007556Y009467D01*
X007585Y009566D02*
X007457Y009566D01*
X007360Y009664D02*
X007601Y009664D01*
X007601Y009763D02*
X007421Y009763D01*
X007509Y009861D02*
X007601Y009861D01*
X007601Y009960D02*
X007549Y009960D01*
X007564Y010058D02*
X007601Y010058D01*
X007601Y010157D02*
X007564Y010157D01*
X007601Y010255D02*
X007524Y010255D01*
X007457Y010354D02*
X007601Y010354D01*
X007604Y010452D02*
X007321Y010452D01*
X007201Y010551D02*
X007645Y010551D01*
X007729Y010649D02*
X007201Y010649D01*
X007201Y010748D02*
X008201Y010748D01*
X008201Y010649D02*
X008173Y010649D01*
X008201Y010847D02*
X007648Y010847D01*
X007727Y010945D02*
X008201Y010945D01*
X008227Y011044D02*
X007731Y011044D01*
X007731Y011142D02*
X008288Y011142D01*
X008386Y011241D02*
X007375Y011241D01*
X007375Y011339D02*
X007275Y011339D01*
X007275Y011438D02*
X007375Y011438D01*
X007375Y011536D02*
X007275Y011536D01*
X007275Y011635D02*
X007375Y011635D01*
X007718Y011635D02*
X009951Y011635D01*
X009951Y011536D02*
X007731Y011536D01*
X007731Y011438D02*
X008453Y011438D01*
X008450Y011339D02*
X007731Y011339D01*
X007375Y011142D02*
X007275Y011142D01*
X007275Y011044D02*
X007375Y011044D01*
X007375Y010945D02*
X007275Y010945D01*
X007275Y010847D02*
X007375Y010847D01*
X005265Y010945D02*
X005168Y010945D01*
X005168Y011044D02*
X005265Y011044D01*
X005265Y011142D02*
X005168Y011142D01*
X003959Y009073D02*
X000351Y009073D01*
X000351Y010157D02*
X000746Y010157D01*
X000779Y010255D02*
X000351Y010255D01*
X000351Y010354D02*
X000845Y010354D01*
X001421Y009763D02*
X001881Y009763D01*
X001794Y009861D02*
X001505Y009861D01*
X001547Y009960D02*
X001753Y009960D01*
X002351Y003554D02*
X002482Y003554D01*
X002470Y003456D02*
X002351Y003456D01*
X002351Y003357D02*
X002470Y003357D01*
X002768Y003160D02*
X002865Y003160D01*
X002865Y003062D02*
X002768Y003062D01*
X002768Y002963D02*
X002865Y002963D01*
X004285Y003427D02*
X004285Y003643D01*
X009916Y011241D02*
X009951Y011241D01*
X009951Y011339D02*
X009852Y011339D01*
X009850Y011438D02*
X009951Y011438D01*
D18*
X007351Y009376D02*
X007151Y009576D01*
X007151Y010076D01*
X007351Y009376D02*
X007351Y006976D01*
X007351Y005576D02*
X007351Y004876D01*
X006951Y004476D01*
X006851Y004476D01*
X006451Y004076D01*
X006017Y004076D01*
X006017Y003860D02*
X006535Y003860D01*
X006951Y004276D01*
X007051Y004276D01*
X006851Y004676D02*
X006751Y004676D01*
X006368Y004293D01*
X006017Y004293D01*
X006017Y004509D02*
X006284Y004509D01*
X006751Y004976D01*
X007051Y004876D02*
X006851Y004676D01*
X007051Y004876D02*
X007051Y005276D01*
X006351Y005276D02*
X006017Y004942D01*
X006017Y004726D01*
X005801Y004942D02*
X005584Y004942D01*
X005584Y005557D01*
X005801Y005576D02*
X005801Y004942D01*
X005584Y004942D02*
X005584Y004923D01*
X005368Y004942D02*
X005368Y006993D01*
X005551Y007176D01*
X005551Y009176D01*
X005151Y009576D01*
X005151Y010076D01*
X004851Y009576D02*
X005251Y009176D01*
X005251Y007476D01*
X005151Y007376D01*
X005151Y004942D01*
X004935Y004942D02*
X004935Y009193D01*
X004751Y009376D01*
X004251Y009376D01*
X004051Y009576D01*
X003351Y009576D01*
X003151Y009776D01*
X003151Y010076D01*
X003051Y009576D02*
X002351Y009576D01*
X002151Y009776D01*
X002151Y010076D01*
X003051Y009576D02*
X003251Y009376D01*
X003951Y009376D01*
X004151Y009176D01*
X004651Y009176D01*
X004718Y009109D01*
X004718Y004942D01*
X004502Y004942D02*
X004502Y005608D01*
X004502Y004942D02*
X004395Y004942D01*
X004285Y004832D01*
X004285Y004726D01*
X004285Y004509D01*
X004285Y004293D01*
X003630Y004293D01*
X003616Y004307D01*
X003630Y004509D02*
X003616Y004523D01*
X003630Y004509D02*
X004285Y004509D01*
X004285Y004293D02*
X004285Y004076D01*
X004285Y003860D02*
X003651Y003860D01*
X003486Y003427D02*
X004285Y003427D01*
X004285Y004726D02*
X003630Y004726D01*
X003594Y004761D01*
X005368Y003210D02*
X005368Y002476D01*
X006017Y003427D02*
X006401Y003427D01*
X006451Y003376D01*
X006451Y003176D01*
X006551Y003076D01*
X006851Y003076D01*
X006818Y003643D02*
X006017Y003643D01*
X004851Y009576D02*
X004351Y009576D01*
X004151Y009776D01*
X004151Y010076D01*
D19*
X005551Y009833D02*
X005551Y009543D01*
X005698Y009396D01*
X005771Y009323D01*
X005810Y009228D01*
X005810Y007398D01*
X005839Y007369D01*
X005891Y007244D01*
X005891Y007109D01*
X005839Y006984D01*
X005744Y006888D01*
X005627Y006840D01*
X005627Y005576D01*
X006051Y005576D01*
X007151Y006676D01*
X007151Y006695D01*
X007063Y006784D01*
X007011Y006909D01*
X007011Y007044D01*
X007063Y007169D01*
X007092Y007198D01*
X007092Y009269D01*
X007004Y009357D01*
X006932Y009429D01*
X006892Y009525D01*
X006892Y009683D01*
X006889Y009684D01*
X006759Y009814D01*
X006689Y009984D01*
X006689Y010168D01*
X006759Y010338D01*
X006889Y010468D01*
X006951Y010494D01*
X006951Y010816D01*
X006950Y010817D01*
X006910Y010795D01*
X006859Y010781D01*
X006605Y010781D01*
X006605Y011248D01*
X006549Y011248D01*
X006549Y010781D01*
X006295Y010781D01*
X006244Y010795D01*
X006198Y010821D01*
X006161Y010858D01*
X006146Y010884D01*
X006129Y010879D01*
X005886Y010879D01*
X005886Y011276D01*
X005886Y011276D01*
X005886Y011276D01*
X006302Y011276D01*
X006302Y011248D01*
X006549Y011248D01*
X006549Y011304D01*
X006302Y011304D01*
X006302Y011276D01*
X005886Y011276D01*
X005886Y010879D01*
X005643Y010879D01*
X005592Y010893D01*
X005552Y010916D01*
X005551Y010915D01*
X005551Y010319D01*
X005614Y010168D01*
X005614Y009984D01*
X005551Y009833D01*
X005551Y009819D02*
X005766Y009819D01*
X005756Y009834D02*
X005798Y009775D01*
X005850Y009723D01*
X005909Y009681D01*
X005974Y009648D01*
X006043Y009625D01*
X006115Y009614D01*
X006151Y009614D01*
X006151Y010076D01*
X006151Y010076D01*
X005689Y010076D01*
X005689Y010040D01*
X005700Y009968D01*
X005723Y009899D01*
X005756Y009834D01*
X005692Y010018D02*
X005614Y010018D01*
X005689Y010076D02*
X006151Y010076D01*
X006151Y010076D01*
X006151Y009614D01*
X006188Y009614D01*
X006259Y009625D01*
X006329Y009648D01*
X006394Y009681D01*
X006452Y009723D01*
X006504Y009775D01*
X006547Y009834D01*
X006580Y009899D01*
X006602Y009968D01*
X006614Y010040D01*
X006614Y010076D01*
X006152Y010076D01*
X006152Y010076D01*
X006614Y010076D01*
X006614Y010113D01*
X006602Y010185D01*
X006580Y010254D01*
X006547Y010319D01*
X006504Y010378D01*
X006452Y010429D01*
X006394Y010472D01*
X006329Y010505D01*
X006259Y010527D01*
X006188Y010539D01*
X006151Y010539D01*
X006115Y010539D01*
X006043Y010527D01*
X005974Y010505D01*
X005909Y010472D01*
X005850Y010429D01*
X005798Y010378D01*
X005756Y010319D01*
X005723Y010254D01*
X005700Y010185D01*
X005689Y010113D01*
X005689Y010076D01*
X005710Y010216D02*
X005594Y010216D01*
X005551Y010415D02*
X005836Y010415D01*
X006151Y010415D02*
X006151Y010415D01*
X006151Y010539D02*
X006151Y010077D01*
X006151Y010077D01*
X006151Y010539D01*
X006214Y010812D02*
X005551Y010812D01*
X005551Y010614D02*
X006951Y010614D01*
X006941Y010812D02*
X006951Y010812D01*
X006605Y010812D02*
X006549Y010812D01*
X006549Y011011D02*
X006605Y011011D01*
X006605Y011209D02*
X006549Y011209D01*
X005886Y011209D02*
X005886Y011209D01*
X005886Y011011D02*
X005886Y011011D01*
X006466Y010415D02*
X006836Y010415D01*
X006709Y010216D02*
X006592Y010216D01*
X006610Y010018D02*
X006689Y010018D01*
X006757Y009819D02*
X006536Y009819D01*
X006233Y009621D02*
X006892Y009621D01*
X006939Y009422D02*
X005671Y009422D01*
X005810Y009224D02*
X007092Y009224D01*
X007092Y009025D02*
X005810Y009025D01*
X005810Y008827D02*
X007092Y008827D01*
X007092Y008628D02*
X005810Y008628D01*
X005810Y008430D02*
X007092Y008430D01*
X007092Y008231D02*
X005810Y008231D01*
X005810Y008033D02*
X007092Y008033D01*
X007092Y007834D02*
X005810Y007834D01*
X005810Y007635D02*
X007092Y007635D01*
X007092Y007437D02*
X005810Y007437D01*
X005891Y007238D02*
X007092Y007238D01*
X007011Y007040D02*
X005863Y007040D01*
X005631Y006841D02*
X007039Y006841D01*
X007118Y006643D02*
X005627Y006643D01*
X005627Y006444D02*
X006919Y006444D01*
X006721Y006246D02*
X005627Y006246D01*
X005627Y006047D02*
X006522Y006047D01*
X006324Y005849D02*
X005627Y005849D01*
X005627Y005650D02*
X006125Y005650D01*
X006151Y009621D02*
X006151Y009621D01*
X006069Y009621D02*
X005551Y009621D01*
X006151Y009819D02*
X006151Y009819D01*
X006151Y010018D02*
X006151Y010018D01*
X006151Y010216D02*
X006151Y010216D01*
D20*
X007951Y010076D03*
X007951Y010376D03*
X007951Y009776D03*
X009151Y009776D03*
X009151Y010076D03*
X009151Y010376D03*
X005751Y006676D03*
X005751Y006376D03*
X005751Y006076D03*
X005751Y005776D03*
X003451Y003776D03*
X003151Y003776D03*
X002851Y003776D03*
X002551Y003776D03*
D21*
X005551Y002476D02*
X005751Y002476D01*
X007651Y002476D01*
X009751Y004576D01*
X009751Y010911D01*
X009486Y011176D01*
X009151Y010376D02*
X009151Y010076D01*
X009151Y009776D01*
X009151Y004776D01*
X007451Y003076D01*
X006851Y003076D01*
X006818Y003643D02*
X007218Y003643D01*
X008551Y004976D01*
X008551Y010911D01*
X008817Y011176D01*
X007951Y010376D02*
X007951Y010076D01*
X007951Y009776D01*
X007951Y009311D01*
X007951Y008642D02*
X007951Y006876D01*
X006351Y005276D01*
M02*
