%
M48
M72
T01C0.0500
T02C0.0890
%
T01
X89308Y37025
X89308Y81177
T02
X2495Y3141
X2495Y22217
X2495Y41294
X2495Y47294
X2495Y66370
X2495Y85446
X44902Y85446
X89308Y85446
X133715Y85446
X176121Y85446
X176121Y66370
X176121Y47294
X176121Y41294
X176121Y22217
X176121Y3141
X133715Y3141
X89308Y3141
X44902Y3141
X44902Y41294
X44902Y47294
X89308Y47294
X89308Y41294
X133715Y41294
X133715Y47294
M30
