%
M48
M72
T01C0.0500
T02C0.0890
%
T01
X89308Y39596
X89308Y86300
T02
X2495Y3141
X2495Y18471
X44902Y3141
X89308Y3141
X133715Y3141
X176121Y3141
X176121Y18471
X176121Y43845
X176121Y49845
X176121Y65175
X133715Y49845
X133715Y43845
X89308Y43845
X89308Y49845
X44902Y49845
X44902Y43845
X2495Y43845
X2495Y49845
X2495Y65175
X2495Y90549
X44902Y90549
X89308Y90549
X133715Y90549
X176121Y90549
M30
