%
M48
M72
T01C0.0500
T02C0.0890
%
T01
X89308Y37044
X89308Y81215
T02
X2495Y3141
X2495Y22227
X2495Y41313
X2495Y47313
X2495Y66398
X2495Y85484
X44902Y85484
X89308Y85484
X133715Y85484
X176121Y85484
X176121Y66398
X176121Y47313
X176121Y41313
X176121Y22227
X176121Y3141
X133715Y3141
X89308Y3141
X44902Y3141
X44902Y41313
X44902Y47313
X89308Y47313
X89308Y41313
X133715Y41313
X133715Y47313
M30
