%
M48
M72
T01C0.0500
T02C0.0890
%
T01
X89308Y37728
X89308Y83469
T02
X2495Y3141
X2495Y23012
X2495Y42883
X2495Y48883
X2495Y68754
X2495Y88624
X44902Y88624
X89308Y88624
X133715Y88624
X176121Y88624
X176121Y68754
X176121Y48883
X176121Y42883
X176121Y23012
X176121Y3141
X133715Y3141
X89308Y3141
X44902Y3141
X44902Y42883
X44902Y48883
X89308Y48883
X89308Y42883
X133715Y42883
X133715Y48883
M30
