%
M48
M72
T01C0.0200
T02C0.0360
T03C0.0394
T04C0.0400
T05C0.0595
T06C0.0900
T07C0.0906
%
T01
X17946Y45081
X17946Y45573
X17946Y46065
X17946Y46558
X18734Y46558
X18734Y46065
X18734Y45573
X18734Y45081
X18734Y52877
X18734Y53369
X18734Y53861
X18734Y54353
X18734Y54845
X18734Y55338
X18734Y55830
X18734Y56322
X17946Y56322
X17946Y55830
X17946Y55338
X17946Y54845
X17946Y54353
X17946Y53861
X17946Y53369
X17946Y52877
T02
X15036Y15651
X15036Y14667
X14256Y14667
X14256Y15651
T03
X13270Y30781
X13270Y31766
X13270Y32553
X13270Y33537
X13270Y37781
X13270Y38766
X13270Y39553
X13270Y40537
T04
X11156Y19659
X11156Y20659
X11156Y21659
X11156Y22659
X11156Y24659
X11156Y25659
X11156Y26659
X11156Y27659
X13656Y27659
X13656Y26659
X13656Y25659
X13656Y24659
X14656Y24659
X14656Y25659
X14656Y26659
X14656Y27659
X15156Y30659
X15156Y31659
X15156Y32659
X15156Y33659
X16156Y33659
X16156Y32659
X16156Y31659
X16156Y30659
X17156Y27659
X17156Y26659
X17156Y25659
X17156Y22659
X17156Y21659
X17156Y20659
X17156Y16659
X17156Y15659
X17156Y14659
X17156Y13659
X20156Y13659
X20156Y14659
X20156Y15659
X20156Y16659
X14656Y19659
X14656Y20659
X14656Y21659
X14656Y22659
X13656Y22659
X13656Y21659
X13656Y20659
X13656Y19659
X18156Y31659
X18156Y32659
X18156Y33659
X18156Y37659
X18156Y38659
X18156Y39659
X18156Y40659
X16156Y40659
X16156Y39659
X16156Y38659
X16156Y37659
X15156Y37659
X15156Y38659
X15156Y39659
X15156Y40659
X14656Y49159
X14656Y50159
X14656Y51159
X14656Y52159
X14656Y54159
X14656Y55159
X14656Y56159
X14656Y57159
T05
X17146Y57409
X17166Y51790
X17146Y47644
X17146Y43994
T06
X13189Y17529
X13189Y12789
T07
X12203Y29573
X12203Y34746
X12203Y36573
X12203Y41746
M30
