<?xml version="1.0" encoding="UTF-8"?><svg xmlns="http://www.w3.org/2000/svg" xmlns:xlink="http://www.w3.org/1999/xlink" fill-opacity="1" color-rendering="auto" color-interpolation="auto" stroke="black" text-rendering="auto" stroke-linecap="square" width="622" stroke-miterlimit="10" stroke-opacity="1" shape-rendering="auto" fill="black" stroke-dasharray="none" font-weight="normal" stroke-width="1" height="437" font-family="'Dialog'" font-style="normal" stroke-linejoin="miter" font-size="12" stroke-dashoffset="0" image-rendering="auto">
  <!--Generated by ySVG-->
  <defs id="genericDefs"/>
  <g>
    <defs id="defs1">
      <clipPath clipPathUnits="userSpaceOnUse" id="clipPath1">
        <path d="M0 0 L622 0 L622 437 L0 437 L0 0 Z"/>
      </clipPath>
      <clipPath clipPathUnits="userSpaceOnUse" id="clipPath2">
        <path d="M-262 156 L360 156 L360 593 L-262 593 L-262 156 Z"/>
      </clipPath>
    </defs>
    <g fill="rgb(0,204,0)" transform="matrix(1,0,0,1,262,-156)" stroke="rgb(0,204,0)">
      <rect x="142.5" width="75" height="35" y="534" clip-path="url(#clipPath2)" stroke="none"/>
    </g>
    <g stroke-miterlimit="1.45" font-family="sans-serif" transform="matrix(1,0,0,1,262,-156)" stroke-linecap="butt">
      <text x="152.8184" xml:space="preserve" y="556.2139" clip-path="url(#clipPath2)" stroke="none">+2v1 LDO</text>
      <rect fill="none" x="142.5" width="75" height="35" y="534" clip-path="url(#clipPath2)"/>
    </g>
    <g fill="rgb(255,102,0)" transform="matrix(1,0,0,1,262,-156)" stroke="rgb(255,102,0)">
      <rect x="260.0761" width="83.7109" height="126.875" y="199.0625" clip-path="url(#clipPath2)" stroke="none"/>
    </g>
    <g stroke-miterlimit="1.45" font-family="sans-serif" transform="matrix(1,0,0,1,262,-156)" stroke-linecap="butt">
      <text x="273.9208" xml:space="preserve" y="259.8633" clip-path="url(#clipPath2)" stroke="none">RocketNet</text>
      <text x="261.5751" xml:space="preserve" y="274.5645" clip-path="url(#clipPath2)" stroke="none">Hub Connector</text>
      <rect fill="none" x="260.0761" width="83.7109" height="126.875" y="199.0625" clip-path="url(#clipPath2)"/>
    </g>
    <g fill="rgb(0,204,0)" transform="matrix(1,0,0,1,262,-156)" stroke="rgb(0,204,0)">
      <rect x="258.1445" width="83.7109" height="70.1172" y="367.0491" clip-path="url(#clipPath2)" stroke="none"/>
    </g>
    <g stroke-miterlimit="1.45" font-family="sans-serif" transform="matrix(1,0,0,1,262,-156)" stroke-linecap="butt">
      <text x="260.6543" xml:space="preserve" y="399.471" clip-path="url(#clipPath2)" stroke="none">Current Switch</text>
      <text x="267.9844" xml:space="preserve" y="414.1721" clip-path="url(#clipPath2)" stroke="none">TI TPS2420</text>
      <rect fill="none" x="258.1445" width="83.7109" height="70.1172" y="367.0491" clip-path="url(#clipPath2)"/>
    </g>
    <g fill="rgb(0,204,255)" transform="matrix(1,0,0,1,262,-156)" stroke="rgb(0,204,255)">
      <rect x="31.083" width="125.3125" height="104" y="333.5596" clip-path="url(#clipPath2)" stroke="none"/>
    </g>
    <g stroke-miterlimit="1.45" font-family="sans-serif" transform="matrix(1,0,0,1,262,-156)" stroke-linecap="butt">
      <text x="54.3965" xml:space="preserve" y="382.9229" clip-path="url(#clipPath2)" stroke="none">Microcontroller</text>
      <text x="60.7246" xml:space="preserve" y="397.624" clip-path="url(#clipPath2)" stroke="none">STM32F407</text>
      <rect fill="none" x="31.083" width="125.3125" height="104" y="333.5596" clip-path="url(#clipPath2)"/>
    </g>
    <g fill="rgb(0,204,0)" transform="matrix(1,0,0,1,262,-156)" stroke="rgb(0,204,0)">
      <rect x="-238.0234" width="108.2227" height="53.1934" y="524.5625" clip-path="url(#clipPath2)" stroke="none"/>
    </g>
    <g stroke-miterlimit="1.45" font-family="sans-serif" transform="matrix(1,0,0,1,262,-156)" stroke-linecap="butt">
      <text x="-235.7764" xml:space="preserve" y="548.5225" clip-path="url(#clipPath2)" stroke="none">+3v3 Power Supply</text>
      <text x="-204.2617" xml:space="preserve" y="563.2236" clip-path="url(#clipPath2)" stroke="none">LT8023</text>
      <rect fill="none" x="-238.0234" width="108.2227" height="53.1934" y="524.5625" clip-path="url(#clipPath2)"/>
    </g>
    <g fill="rgb(255,204,0)" transform="matrix(1,0,0,1,262,-156)" stroke="rgb(255,204,0)">
      <rect x="-142.0566" width="88.0742" height="27.5586" y="430.1289" clip-path="url(#clipPath2)" stroke="none"/>
    </g>
    <g stroke-miterlimit="1.45" font-family="sans-serif" transform="matrix(1,0,0,1,262,-156)" stroke-linecap="butt">
      <text x="-132.0332" xml:space="preserve" y="448.6221" clip-path="url(#clipPath2)" stroke="none">Battery Pack</text>
      <rect fill="none" x="-142.0566" width="88.0742" height="27.5586" y="430.1289" clip-path="url(#clipPath2)"/>
    </g>
    <g fill="rgb(0,204,0)" transform="matrix(1,0,0,1,262,-156)" stroke="rgb(0,204,0)">
      <rect x="-225.7676" width="83.7109" height="53.1934" y="358.9629" clip-path="url(#clipPath2)" stroke="none"/>
    </g>
    <g stroke-miterlimit="1.45" font-family="sans-serif" transform="matrix(1,0,0,1,262,-156)" stroke-linecap="butt">
      <text x="-226.2637" xml:space="preserve" y="382.9229" clip-path="url(#clipPath2)" stroke="none">Battery Charger</text>
      <text x="-216.2646" xml:space="preserve" y="397.624" clip-path="url(#clipPath2)" stroke="none">TI BQ24725</text>
      <rect fill="none" x="-225.7676" width="83.7109" height="53.1934" y="358.9629" clip-path="url(#clipPath2)"/>
    </g>
    <g fill="rgb(255,102,0)" transform="matrix(1,0,0,1,262,-156)" stroke="rgb(255,102,0)">
      <rect x="-246.5684" width="125.3125" height="58" y="206.1562" clip-path="url(#clipPath2)" stroke="none"/>
    </g>
    <g stroke-miterlimit="1.45" font-family="sans-serif" transform="matrix(1,0,0,1,262,-156)" stroke-linecap="butt">
      <text x="-229.2725" xml:space="preserve" y="239.8701" clip-path="url(#clipPath2)" stroke="none">Shore Connector</text>
      <rect fill="none" x="-246.5684" width="125.3125" height="58" y="206.1562" clip-path="url(#clipPath2)"/>
    </g>
    <g fill="rgb(0,204,255)" transform="matrix(1,0,0,1,262,-156)" stroke="rgb(0,204,255)">
      <rect x="1.8017" width="183.875" height="126.875" y="171.7188" clip-path="url(#clipPath2)" stroke="none"/>
    </g>
    <g stroke-miterlimit="1.45" font-family="sans-serif" transform="matrix(1,0,0,1,262,-156)" stroke-linecap="butt">
      <text x="51.7187" xml:space="preserve" y="232.5195" clip-path="url(#clipPath2)" stroke="none">Ethernet Switch</text>
      <text x="54.7216" xml:space="preserve" y="247.2207" clip-path="url(#clipPath2)" stroke="none">Micrel KS8999</text>
      <rect fill="none" x="1.8017" width="183.875" height="126.875" y="171.7188" clip-path="url(#clipPath2)"/>
      <text x="-107.3564" xml:space="preserve" y="376.5145" clip-path="url(#clipPath2)" stroke="none">I2C</text>
      <text x="105.4072" xml:space="preserve" y="320.7905" clip-path="url(#clipPath2)" stroke="none">MII</text>
      <text x="-222.7656" xml:space="preserve" y="473.0732" clip-path="url(#clipPath2)" stroke="none">+18v</text>
      <text x="-107.3564" xml:space="preserve" y="286.7838" clip-path="url(#clipPath2)" stroke="none">Rocket</text>
      <text x="-106.0264" xml:space="preserve" y="301.4849" clip-path="url(#clipPath2)" stroke="none">Ready</text>
      <text x="-112.0293" xml:space="preserve" y="316.1861" clip-path="url(#clipPath2)" stroke="none">Interface</text>
      <text x="-82.4087" xml:space="preserve" y="220.2207" clip-path="url(#clipPath2)" stroke="none">Ethernet</text>
      <text x="-222.7656" xml:space="preserve" y="316.2734" clip-path="url(#clipPath2)" stroke="none">+18v</text>
      <text x="60.1304" xml:space="preserve" y="502.6645" clip-path="url(#clipPath2)" stroke="none">+3v3</text>
      <text x="128.04" xml:space="preserve" y="502.6645" clip-path="url(#clipPath2)" stroke="none">+2v1</text>
      <text x="172.9223" xml:space="preserve" y="400.2639" clip-path="url(#clipPath2)" stroke="none">Current Data</text>
      <text x="200.1948" xml:space="preserve" y="223.127" clip-path="url(#clipPath2)" stroke="none">Ethernet</text>
      <path fill="none" d="M300 437.1663 L300 468.6 L-185.8437 468.6 L300 468.6 L300 445.8 L300 445.1663" clip-path="url(#clipPath2)" stroke="red"/>
      <path fill="red" d="M300 437.1663 L295 449.1663 L300 446.1663 L305 449.1663 Z" clip-path="url(#clipPath2)" stroke="none"/>
      <path fill="none" d="M300.485 367.0491 L300.9432 333.9367" clip-path="url(#clipPath2)" stroke="red"/>
      <path fill="red" d="M301.0539 325.9375 L295.8883 337.8672 L300.9294 334.9366 L305.8874 338.0055 Z" clip-path="url(#clipPath2)" stroke="none"/>
      <path fill="none" d="M156.3895 406.8 L250.1477 406.8" clip-path="url(#clipPath2)"/>
      <path d="M258.1477 406.8 L246.1477 401.8 L249.1477 406.8 L246.1477 411.8 Z" clip-path="url(#clipPath2)" stroke="none"/>
      <path fill="none" d="M-129.8008 551.1592 L93.7392 551.1592 L93.7392 445.5436" clip-path="url(#clipPath2)" stroke="red"/>
      <path fill="red" d="M93.7392 437.5436 L88.7392 449.5436 L93.7392 446.5436 L98.7392 449.5436 Z" clip-path="url(#clipPath2)" stroke="none"/>
      <path fill="none" d="M-129.8008 551.2098 L134.5 551.4574" clip-path="url(#clipPath2)" stroke="red"/>
      <path fill="red" d="M142.5 551.4649 L130.5047 546.4537 L133.5 551.4565 L130.4953 556.4536 Z" clip-path="url(#clipPath2)" stroke="none"/>
      <path fill="none" d="M-142.0566 443.9082 L-183.9121 443.9082 L-148.4056 443.9082 L-142.0566 443.9082" clip-path="url(#clipPath2)" stroke="red"/>
      <path fill="red" d="M-142.0566 443.9082 L-154.0566 438.9082 L-151.0566 443.9082 L-154.0566 448.9082 Z" clip-path="url(#clipPath2)" stroke="none"/>
      <path fill="none" d="M-142.0566 385.5596 L-89.4298 385.5596 L-108.4 385.5596 L-98.0195 385.5596 L-98.0195 422.1289" clip-path="url(#clipPath2)"/>
      <path d="M-98.0195 430.1289 L-93.0195 418.1289 L-98.0195 421.1289 L-103.0195 418.1289 Z" clip-path="url(#clipPath2)" stroke="none"/>
      <path fill="none" d="M-134.0566 385.5596 L23.0716 385.5596" clip-path="url(#clipPath2)"/>
      <path d="M-142.0566 385.5596 L-130.0566 390.5596 L-133.0566 385.5596 L-130.0566 380.5596 Z" clip-path="url(#clipPath2)" stroke="none"/>
      <path d="M31.0716 385.5596 L19.0716 380.5596 L22.0716 385.5596 L19.0716 390.5596 Z" clip-path="url(#clipPath2)" stroke="none"/>
      <path fill="none" d="M-183.9121 412.1562 L-183.9121 516.5625" clip-path="url(#clipPath2)" stroke="red"/>
      <path fill="red" d="M-183.9121 524.5625 L-178.9121 512.5625 L-183.9121 515.5625 L-188.9121 512.5625 Z" clip-path="url(#clipPath2)" stroke="none"/>
      <path fill="none" d="M-113.2434 251.9693 L-59.0074 251.9693 L-59.0074 342.45 L29.908 342.45 L31.1048 342.45" clip-path="url(#clipPath2)"/>
      <path d="M-121.2434 251.9693 L-109.2434 256.9693 L-112.2434 251.9693 L-109.2434 246.9693 Z" clip-path="url(#clipPath2)" stroke="none"/>
      <path d="M31.1048 342.45 L19.1048 337.45 L22.1048 342.45 L19.1048 347.45 Z" clip-path="url(#clipPath2)" stroke="none"/>
      <path fill="none" d="M-183.9121 264.1562 L-183.9121 350.9629" clip-path="url(#clipPath2)" stroke="red"/>
      <path fill="red" d="M-183.9121 358.9629 L-178.9121 346.9629 L-183.9121 349.9629 L-188.9121 346.9629 Z" clip-path="url(#clipPath2)" stroke="none"/>
      <path fill="none" d="M166 533.999 L166 306.5804" clip-path="url(#clipPath2)" stroke="red"/>
      <path fill="red" d="M166 298.5804 L161 310.5804 L166 307.5804 L171 310.5804 Z" clip-path="url(#clipPath2)" stroke="none"/>
      <path fill="none" d="M93.7392 306.5938 L93.7392 325.5596" clip-path="url(#clipPath2)"/>
      <path d="M93.7392 298.5938 L88.7392 310.5938 L93.7392 307.5938 L98.7392 310.5938 Z" clip-path="url(#clipPath2)" stroke="none"/>
      <path d="M93.7392 333.5596 L98.7392 321.5596 L93.7392 324.5596 L88.7392 321.5596 Z" clip-path="url(#clipPath2)" stroke="none"/>
      <path fill="none" d="M185.6767 235.1562 L252.0993 235.1562" clip-path="url(#clipPath2)"/>
      <path d="M260.0993 235.1562 L248.0993 230.1562 L251.0993 235.1562 L248.0993 240.1562 Z" clip-path="url(#clipPath2)" stroke="none"/>
      <path fill="none" d="M-6.1983 235.1562 L-113.2559 235.1562" clip-path="url(#clipPath2)"/>
      <path d="M1.8017 235.1562 L-10.1983 230.1562 L-7.1983 235.1562 L-10.1983 240.1562 Z" clip-path="url(#clipPath2)" stroke="none"/>
      <path d="M-121.2559 235.1562 L-109.2559 240.1562 L-112.2559 235.1562 L-109.2559 230.1562 Z" clip-path="url(#clipPath2)" stroke="none"/>
    </g>
  </g>
</svg>
