%
M48
M72
T01C0.0160
T02C0.0200
T03C0.0350
T04C0.0400
T05C0.0595
T06C0.0600
T07C0.1181
T08C0.1378
%
T01
X2400Y4400
X2400Y5600
T02
X3466Y5732
X3466Y6224
X3466Y6716
X4254Y6716
X4254Y6224
X4254Y5732
X4254Y5240
X4254Y4748
X4254Y4256
X4254Y3763
X4254Y3271
X3466Y3271
X3466Y3763
X3466Y4256
X3466Y4748
X3466Y5240
T03
X1881Y6055
X1881Y4145
T04
X900Y600
X900Y1600
X900Y2600
X900Y7500
X900Y8500
T05
X3860Y7803
X3860Y2184
T06
X700Y3722
X700Y6483
T07
X1500Y10900
T08
X3862Y10900
M30
