%
M48
M72
T01C0.0080
T02C0.0160
T03C0.0200
T04C0.0320
T05C0.0350
T06C0.0354
T07C0.0595
T08C0.1250
%
T01
X350Y350
X950Y1600
X2700Y500
X5350Y350
X5600Y1000
X7850Y2200
X6500Y3150
X6750Y3450
X8550Y3850
X9750Y3800
X10850Y4500
X10600Y4850
X10600Y5150
X10450Y6250
X10050Y6300
X10450Y6550
X9700Y6900
X10400Y7600
X11950Y6850
X12100Y7250
X12400Y7250
X13500Y7100
X13800Y7100
X14050Y7350
X14550Y7350
X15050Y7350
X15050Y7750
X17350Y7750
X15850Y10450
X14900Y10450
X13800Y10450
X13500Y10450
X12400Y10600
X12100Y10600
X10850Y11050
X10850Y11350
X10300Y10350
X9800Y10400
X9450Y10400
X9100Y10400
X8750Y10250
X8750Y10600
X8100Y11050
X8100Y11350
X7350Y10800
X7350Y10350
X7800Y10150
X7800Y9750
X7800Y9350
X7600Y8750
X7300Y8750
X7300Y8350
X7600Y8350
X6000Y8200
X6000Y7800
X5650Y8000
X6050Y9150
X4000Y8600
X3800Y10150
X350Y11000
X4550Y12950
X4900Y13200
X5900Y13200
X6100Y13400
X7400Y13550
X7400Y13150
X8150Y13150
X8200Y12750
X8200Y12450
X8200Y13550
X8200Y13950
X8200Y14300
X7400Y14300
X7400Y13950
X6250Y14450
X6100Y15100
X6700Y16400
X7950Y17250
X7950Y17500
X7600Y17500
X8900Y17400
X9650Y16900
X10450Y16800
X9800Y16500
X9300Y15900
X9800Y15500
X10100Y15250
X10900Y15650
X11450Y15600
X11450Y15850
X11450Y16100
X11450Y16350
X11750Y16350
X11750Y16100
X11750Y15850
X11750Y15600
X11800Y15150
X11400Y15150
X10100Y13850
X10700Y12750
X10700Y12450
X11300Y12650
X15100Y13600
X15950Y14550
X15600Y14800
X15100Y15350
X14850Y15350
X14850Y15650
X15100Y15650
X15100Y15950
X14850Y15950
X14850Y16250
X15100Y16250
X15100Y16550
X14850Y16550
X13700Y17350
X12800Y18000
X12450Y17650
X10800Y17400
X10600Y18100
X10600Y18350
X10350Y18050
X10100Y18050
X9850Y18050
X9900Y17650
X10600Y18650
X12600Y19500
X12900Y19500
X13200Y19500
X13500Y19500
X14400Y20100
X14200Y20500
X13800Y21100
X14750Y21600
X15450Y22250
X14600Y22750
X14000Y22750
X15800Y23650
X11400Y21200
X11400Y20900
X11100Y20900
X11100Y21200
X11100Y20600
X11400Y20600
X12000Y20600
X9000Y20600
X8700Y20600
X8600Y20150
X8600Y19900
X8600Y19650
X7800Y19900
X7050Y20000
X6800Y19850
X7050Y19700
X7000Y19350
X7500Y19000
X5900Y19750
X5600Y19750
X5600Y20000
X5300Y20000
X5300Y19750
X5000Y19750
X5000Y20000
X4200Y20200
X2700Y21500
X2700Y22500
X2600Y23000
X3250Y23000
X3800Y23650
X4050Y23650
X4300Y23650
X1800Y22900
X600Y23000
X350Y23650
X350Y21400
X600Y18900
X2450Y18300
X2450Y17700
X350Y16750
X1000Y15950
X1000Y14350
X10350Y9200
X12150Y9100
X8550Y6950
X7650Y6950
X7300Y7100
X7300Y6750
X6400Y5500
X7950Y5150
X7950Y4850
X8500Y4850
X8500Y5150
X5550Y6500
X3600Y6500
X3600Y5900
X4000Y4400
X4600Y2700
X350Y5100
X10350Y350
X15000Y350
X20600Y450
X20600Y5450
X24600Y6950
X29600Y6950
X34600Y6950
X39650Y6950
X39650Y11950
X34600Y11950
X29600Y11950
X24600Y11950
X20600Y10450
X15900Y11500
X15250Y11500
X15850Y15650
X16500Y16200
X15150Y17600
X15250Y19250
X15100Y19600
X15750Y19150
X16300Y20100
X17050Y20150
X15350Y20550
X18900Y18600
X18400Y17550
X20600Y15450
X24600Y16950
X20700Y19850
X29600Y16950
X34600Y16950
X39650Y16950
X12850Y5800
X12550Y5500
X6750Y20200
X7250Y20850
X7500Y20850
X7500Y21100
X7500Y21350
X7500Y21600
X8700Y21200
X8700Y20900
X9000Y20900
X9000Y21200
X11100Y23650
T02
X14900Y22000
X16250Y19150
X19100Y17450
X19100Y16450
X20100Y16450
X21100Y16450
X22100Y16450
X22100Y15450
X21100Y15450
X20100Y15450
X19100Y15450
X19100Y14450
X20100Y14450
X21100Y14450
X22100Y14450
X22100Y13450
X21100Y13450
X20100Y13450
X19100Y13450
X19100Y12450
X20100Y12450
X21100Y12450
X22100Y12450
X22100Y11450
X21100Y11450
X20100Y11450
X19100Y11450
X19100Y10450
X20100Y10450
X21100Y10450
X22100Y10450
X22100Y9450
X21100Y9450
X20100Y9450
X19100Y9450
X19100Y8450
X20100Y8450
X21100Y8450
X22100Y8450
X22100Y7450
X21100Y7450
X20100Y7450
X19100Y7450
X19100Y6450
X20100Y6450
X21100Y6450
X22100Y6450
X22100Y5450
X21100Y5450
X20100Y5450
X19100Y5450
X19100Y4450
X20100Y4450
X21100Y4450
X22100Y4450
X22100Y3450
X21100Y3450
X20100Y3450
X19100Y3450
X19100Y2450
X20100Y2450
X21100Y2450
X22100Y2450
X22100Y1450
X21100Y1450
X20100Y1450
X19100Y1450
X19100Y450
X20100Y450
X21100Y450
X22100Y450
X4000Y10850
X3000Y10850
X3350Y8050
X3000Y5800
X2100Y5800
X1200Y5800
X6800Y14900
X6690Y15795
X6700Y17000
X22100Y17450
T03
X2677Y16822
X2677Y16330
X2677Y15838
X2677Y15346
X2677Y14854
X2677Y14362
X2677Y13870
X2677Y13378
X1890Y13378
X1890Y13870
X1890Y14362
X1890Y14854
X1890Y15346
X1890Y15838
X1890Y16330
X1890Y16822
X1700Y10022
X1700Y9530
X1700Y9038
X1700Y8546
X1700Y8054
X1700Y7562
X1700Y7070
X1700Y6578
X2487Y6578
X2487Y7070
X2487Y7562
X2487Y8054
X2487Y8546
X2487Y9038
X2487Y9530
X2487Y10022
T04
X19100Y20450
X20100Y20450
X21100Y20450
X22100Y20450
X23100Y20450
X24100Y20450
X25100Y20450
X26100Y20450
X27100Y20450
X28100Y20450
X29100Y20450
X30100Y20450
X31100Y20450
X32100Y20450
X33100Y20450
X34100Y20450
X35100Y20450
X36100Y20450
X36100Y19450
X35100Y19450
X34100Y19450
X33100Y19450
X32100Y19450
X31100Y19450
X30100Y19450
X29100Y19450
X28100Y19450
X27100Y19450
X26100Y19450
X25100Y19450
X24100Y19450
X23100Y19450
X23100Y18450
X24100Y18450
X25100Y18450
X26100Y18450
X27100Y18450
X28100Y18450
X29100Y18450
X30100Y18450
X31100Y18450
X32100Y18450
X33100Y18450
X34100Y18450
X35100Y18450
X36100Y18450
X36100Y17450
X37100Y17450
X38100Y17450
X39100Y17450
X39100Y16450
X38100Y16450
X37100Y16450
X36100Y16450
X35100Y16450
X34100Y16450
X33100Y16450
X32100Y16450
X31100Y16450
X30100Y16450
X29100Y16450
X28100Y16450
X27100Y16450
X26100Y16450
X25100Y16450
X24100Y16450
X23100Y16450
X23100Y15450
X24100Y15450
X25100Y15450
X26100Y15450
X27100Y15450
X28100Y15450
X29100Y15450
X30100Y15450
X31100Y15450
X32100Y15450
X33100Y15450
X34100Y15450
X35100Y15450
X36100Y15450
X37100Y15450
X38100Y15450
X39100Y15450
X39100Y14450
X38100Y14450
X37100Y14450
X36100Y14450
X35100Y14450
X34100Y14450
X33100Y14450
X32100Y14450
X31100Y14450
X30100Y14450
X29100Y14450
X28100Y14450
X27100Y14450
X26100Y14450
X25100Y14450
X24100Y14450
X23100Y14450
X23100Y13450
X24100Y13450
X25100Y13450
X26100Y13450
X27100Y13450
X28100Y13450
X29100Y13450
X30100Y13450
X31100Y13450
X32100Y13450
X33100Y13450
X34100Y13450
X35100Y13450
X36100Y13450
X37100Y13450
X38100Y13450
X39100Y13450
X39100Y12450
X38100Y12450
X37100Y12450
X36100Y12450
X35100Y12450
X34100Y12450
X33100Y12450
X32100Y12450
X31100Y12450
X30100Y12450
X29100Y12450
X28100Y12450
X27100Y12450
X26100Y12450
X25100Y12450
X24100Y12450
X23100Y12450
X23100Y11450
X24100Y11450
X25100Y11450
X26100Y11450
X27100Y11450
X28100Y11450
X29100Y11450
X30100Y11450
X31100Y11450
X32100Y11450
X33100Y11450
X34100Y11450
X35100Y11450
X36100Y11450
X37100Y11450
X38100Y11450
X39100Y11450
X39100Y10450
X38100Y10450
X37100Y10450
X36100Y10450
X35100Y10450
X34100Y10450
X33100Y10450
X32100Y10450
X31100Y10450
X30100Y10450
X29100Y10450
X28100Y10450
X27100Y10450
X26100Y10450
X25100Y10450
X24100Y10450
X23100Y10450
X23100Y9450
X24100Y9450
X25100Y9450
X26100Y9450
X27100Y9450
X28100Y9450
X29100Y9450
X30100Y9450
X31100Y9450
X32100Y9450
X33100Y9450
X34100Y9450
X35100Y9450
X36100Y9450
X37100Y9450
X38100Y9450
X39100Y9450
X39100Y8450
X38100Y8450
X37100Y8450
X36100Y8450
X35100Y8450
X34100Y8450
X33100Y8450
X32100Y8450
X31100Y8450
X30100Y8450
X29100Y8450
X28100Y8450
X27100Y8450
X26100Y8450
X25100Y8450
X24100Y8450
X23100Y8450
X23100Y7450
X24100Y7450
X25100Y7450
X26100Y7450
X27100Y7450
X28100Y7450
X29100Y7450
X30100Y7450
X31100Y7450
X32100Y7450
X33100Y7450
X34100Y7450
X35100Y7450
X36100Y7450
X37100Y7450
X38100Y7450
X39100Y7450
X39100Y6450
X38100Y6450
X37100Y6450
X36100Y6450
X35100Y6450
X34100Y6450
X33100Y6450
X32100Y6450
X31100Y6450
X30100Y6450
X29100Y6450
X28100Y6450
X27100Y6450
X26100Y6450
X25100Y6450
X24100Y6450
X23100Y6450
X23100Y5450
X24100Y5450
X25100Y5450
X26100Y5450
X27100Y5450
X28100Y5450
X29100Y5450
X30100Y5450
X31100Y5450
X32100Y5450
X33100Y5450
X34100Y5450
X35100Y5450
X36100Y5450
X36100Y4450
X35100Y4450
X34100Y4450
X33100Y4450
X32100Y4450
X31100Y4450
X30100Y4450
X29100Y4450
X28100Y4450
X27100Y4450
X26100Y4450
X25100Y4450
X24100Y4450
X23100Y4450
X23100Y3450
X24100Y3450
X25100Y3450
X26100Y3450
X27100Y3450
X28100Y3450
X29100Y3450
X30100Y3450
X31100Y3450
X32100Y3450
X33100Y3450
X34100Y3450
X35100Y3450
X36100Y3450
X36100Y2450
X35100Y2450
X34100Y2450
X33100Y2450
X32100Y2450
X31100Y2450
X30100Y2450
X29100Y2450
X28100Y2450
X27100Y2450
X26100Y2450
X25100Y2450
X24100Y2450
X23100Y2450
X23100Y1450
X24100Y1450
X25100Y1450
X26100Y1450
X27100Y1450
X28100Y1450
X29100Y1450
X30100Y1450
X31100Y1450
X32100Y1450
X33100Y1450
X34100Y1450
X35100Y1450
X36100Y1450
X37100Y1450
X38100Y1450
X39100Y1450
X39100Y450
X38100Y450
X37100Y450
X36100Y450
X35100Y450
X34100Y450
X33100Y450
X32100Y450
X31100Y450
X30100Y450
X29100Y450
X28100Y450
X27100Y450
X26100Y450
X25100Y450
X24100Y450
X23100Y450
X39100Y2450
X39100Y5450
X35100Y17450
X34100Y17450
X33100Y17450
X32100Y17450
X31100Y17450
X30100Y17450
X29100Y17450
X28100Y17450
X27100Y17450
X26100Y17450
X25100Y17450
X24100Y17450
X23100Y17450
X23100Y21450
X24100Y21450
X25100Y21450
X26100Y21450
X27100Y21450
X28100Y21450
X29100Y21450
X30100Y21450
X31100Y21450
X32100Y21450
X33100Y21450
X34100Y21450
X35100Y21450
X36100Y21450
X36100Y22450
X37100Y22450
X38100Y22450
X39100Y22450
X39100Y21450
X39100Y23450
X38100Y23450
X37100Y23450
X36100Y23450
X35100Y23450
X34100Y23450
X33100Y23450
X32100Y23450
X31100Y23450
X30100Y23450
X29100Y23450
X28100Y23450
X27100Y23450
X26100Y23450
X25100Y23450
X24100Y23450
X23100Y23450
X22100Y23450
X21100Y23450
X20100Y23450
X19100Y23450
X19100Y22450
X20100Y22450
X21100Y22450
X22100Y22450
X23100Y22450
X24100Y22450
X25100Y22450
X26100Y22450
X27100Y22450
X28100Y22450
X29100Y22450
X30100Y22450
X31100Y22450
X32100Y22450
X33100Y22450
X34100Y22450
X35100Y22450
X39100Y18450
X22100Y21450
X21100Y21450
X20100Y21450
X19100Y21450
T05
X12994Y23100
X12206Y23100
T06
X16306Y22500
X17094Y22500
T07
X1090Y17909
X1110Y12291
T08
X1800Y20000
X1800Y4000
X37800Y4000
X37800Y20000
M30
